<svg width="100" height="100" viewBox="0 0 100 100" fill="none" xmlns="http://www.w3.org/2000/svg">
<rect width="100" height="100" rx="50" fill="#E5F9FF"/>
<path d="M63.7501 32.5004C62.7556 32.5004 61.8017 32.8955 61.0985 33.5986C60.3952 34.3018 60.0002 35.2555 60.0002 36.2499C60.0002 37.2443 60.3952 38.198 61.0985 38.9012C61.8017 39.6044 62.7556 39.9994 63.7501 39.9994C64.7446 39.9994 65.6985 39.6044 66.4017 38.9012C67.105 38.198 67.5 37.2443 67.5 36.2499C67.5 35.2555 67.105 34.3018 66.4017 33.5986C65.6985 32.8955 64.7446 32.5004 63.7501 32.5004ZM57.5002 36.2499C57.5 34.7837 58.0155 33.3641 58.9564 32.2395C59.8972 31.1149 61.2037 30.3569 62.647 30.0981C64.0904 29.8393 65.5788 30.0963 66.8519 30.8239C68.1249 31.5516 69.1016 32.7037 69.6109 34.0786C70.1202 35.4535 70.1298 36.9638 69.638 38.345C69.1462 39.7263 68.1843 40.8907 66.9206 41.6345C65.6568 42.3783 64.1718 42.6541 62.7253 42.4137C61.2787 42.1732 59.9628 41.4319 59.0077 40.3193L42.213 48.1182C42.5991 49.3417 42.5991 50.6543 42.213 51.8777L59.0077 59.6766C60.0173 58.5026 61.4268 57.7452 62.9631 57.5511C64.4994 57.3569 66.0531 57.74 67.323 58.626C68.5929 59.512 69.4887 60.8378 69.8367 62.3466C70.1847 63.8553 69.9601 65.4395 69.2065 66.7921C68.4529 68.1447 67.2239 69.1694 65.7578 69.6676C64.2916 70.1658 62.6927 70.1021 61.2708 69.4888C59.849 68.8754 58.7055 67.7562 58.062 66.3479C57.4185 64.9396 57.3207 63.3426 57.7877 61.8663L40.993 54.0674C40.1616 55.0362 39.0534 55.7272 37.8175 56.0473C36.5816 56.3675 35.2772 56.3016 34.0799 55.8584C32.8826 55.4151 31.8498 54.6159 31.1204 53.5682C30.391 52.5205 30 51.2745 30 49.998C30 48.7214 30.391 47.4755 31.1204 46.4278C31.8498 45.3801 32.8826 44.5808 34.0799 44.1376C35.2772 43.6944 36.5816 43.6284 37.8175 43.9486C39.0534 44.2688 40.1616 44.9598 40.993 45.9286L57.7877 38.1296C57.5965 37.5214 57.4996 36.8875 57.5002 36.2499ZM36.2506 46.2485C35.256 46.2485 34.3022 46.6435 33.599 47.3467C32.8957 48.0499 32.5006 49.0036 32.5006 49.998C32.5006 50.9924 32.8957 51.9461 33.599 52.6493C34.3022 53.3524 35.256 53.7475 36.2506 53.7475C37.2451 53.7475 38.1989 53.3524 38.9022 52.6493C39.6054 51.9461 40.0005 50.9924 40.0005 49.998C40.0005 49.0036 39.6054 48.0499 38.9022 47.3467C38.1989 46.6435 37.2451 46.2485 36.2506 46.2485ZM63.7501 59.9966C62.7556 59.9966 61.8017 60.3916 61.0985 61.0948C60.3952 61.7979 60.0002 62.7516 60.0002 63.7461C60.0002 64.7405 60.3952 65.6942 61.0985 66.3973C61.8017 67.1005 62.7556 67.4955 63.7501 67.4955C64.7446 67.4955 65.6985 67.1005 66.4017 66.3973C67.105 65.6942 67.5 64.7405 67.5 63.7461C67.5 62.7516 67.105 61.7979 66.4017 61.0948C65.6985 60.3916 64.7446 59.9966 63.7501 59.9966Z" fill="#00C2FF"/>
</svg>
