<svg width="318" height="44" viewBox="0 0 318 44" fill="none" xmlns="http://www.w3.org/2000/svg">
<path fill-rule="evenodd" clip-rule="evenodd" d="M312.301 43H174.898C171.867 43 169.399 40.6329 169.399 37.75V6.25C169.399 3.35661 171.867 1 174.898 1H312.301C315.329 1 317.799 3.35661 317.799 6.25V37.75C317.799 40.6329 315.329 43 312.301 43Z" fill="white"/>
<path d="M244.025 18.8891C243.095 18.8916 242.186 19.1734 241.414 19.699C240.641 20.2245 240.04 20.9702 239.686 21.8419C239.331 22.7136 239.24 23.6721 239.423 24.5964C239.606 25.5207 240.055 26.3693 240.714 27.035C241.373 27.7007 242.211 28.1537 243.124 28.3367C244.037 28.5197 244.982 28.4245 245.842 28.0632C246.701 27.7018 247.435 27.0905 247.952 26.3065C248.469 25.5225 248.744 24.601 248.744 23.6582C248.754 23.028 248.639 22.4022 248.406 21.8181C248.172 21.234 247.824 20.7036 247.384 20.2585C246.944 19.8134 246.419 19.4627 245.842 19.2275C245.265 18.9922 244.647 18.8771 244.025 18.8891ZM244.025 26.4793C243.455 26.5199 242.886 26.3856 242.392 26.0938C241.898 25.802 241.502 25.3663 241.256 24.8434C241.01 24.3205 240.925 23.7346 241.012 23.162C241.1 22.5895 241.355 22.0568 241.745 21.6335C242.135 21.2101 242.642 20.9156 243.2 20.7883C243.758 20.661 244.341 20.7069 244.872 20.9199C245.404 21.133 245.86 21.5033 246.181 21.9827C246.502 22.4621 246.673 23.0283 246.672 23.6076C246.689 23.9734 246.633 24.3388 246.508 24.6824C246.384 25.026 246.192 25.3409 245.946 25.6085C245.699 25.8761 245.402 26.091 245.072 26.2405C244.742 26.39 244.386 26.4712 244.025 26.4793ZM233.751 18.8891C232.82 18.8891 231.91 19.1688 231.136 19.6928C230.362 20.2169 229.759 20.9617 229.402 21.8332C229.046 22.7046 228.953 23.6635 229.134 24.5887C229.316 25.5138 229.764 26.3636 230.423 27.0306C231.081 27.6975 231.919 28.1518 232.832 28.3358C233.745 28.5198 234.692 28.4254 235.552 28.0644C236.412 27.7034 237.147 27.0921 237.664 26.3079C238.181 25.5236 238.457 24.6015 238.457 23.6582C238.466 23.0296 238.35 22.4056 238.116 21.8231C237.882 21.2407 237.536 20.7115 237.097 20.267C236.659 19.8224 236.136 19.4714 235.562 19.2348C234.987 18.9981 234.371 18.8806 233.751 18.8891ZM233.751 26.4793C233.18 26.5199 232.611 26.3856 232.117 26.0938C231.623 25.802 231.228 25.3663 230.982 24.8434C230.735 24.3205 230.651 23.7346 230.738 23.162C230.825 22.5895 231.08 22.0568 231.471 21.6335C231.861 21.2101 232.368 20.9156 232.926 20.7883C233.483 20.661 234.066 20.7069 234.598 20.9199C235.129 21.133 235.585 21.5033 235.906 21.9827C236.227 22.4621 236.398 23.0283 236.397 23.6076C236.412 23.973 236.355 24.3377 236.23 24.6805C236.105 25.0234 235.913 25.3376 235.667 25.6048C235.421 25.872 235.125 26.0869 234.796 26.2371C234.467 26.3872 234.111 26.4695 233.751 26.4793ZM221.491 20.3186V22.33H226.26C226.184 23.2718 225.802 24.1615 225.174 24.86C224.697 25.3562 224.123 25.7454 223.489 26.0025C222.854 26.2597 222.174 26.379 221.491 26.3528C220.13 26.2858 218.847 25.6908 217.907 24.6911C216.967 23.6913 216.442 22.3635 216.442 20.9827C216.442 19.6019 216.967 18.2741 217.907 17.2744C218.847 16.2746 220.13 15.6796 221.491 15.6126C222.83 15.5971 224.121 16.115 225.087 17.0548L226.485 15.6253C225.828 14.9677 225.047 14.4499 224.19 14.1023C223.332 13.7547 222.415 13.5843 221.491 13.6012C219.557 13.6012 217.703 14.3796 216.336 15.7651C214.968 17.1506 214.2 19.0297 214.2 20.989C214.2 22.9484 214.968 24.8275 216.336 26.213C217.703 27.5985 219.557 28.3768 221.491 28.3768C222.39 28.4268 223.288 28.2862 224.13 27.964C224.972 27.6418 225.738 27.1451 226.38 26.5057C227.021 25.8663 227.524 25.0983 227.856 24.2507C228.188 23.4032 228.342 22.4948 228.307 21.5836C228.312 21.1592 228.274 20.7354 228.195 20.3186H221.491ZM271.503 21.8872C271.217 21.0353 270.681 20.292 269.967 19.7563C269.254 19.2207 268.396 18.9182 267.508 18.8891C266.905 18.895 266.309 19.0247 265.757 19.2702C265.204 19.5157 264.707 19.872 264.294 20.3176C263.881 20.7632 263.561 21.2889 263.354 21.8631C263.147 22.4372 263.057 23.0478 263.089 23.6582C263.075 24.2834 263.186 24.9049 263.415 25.4857C263.644 26.0664 263.986 26.5946 264.42 27.0385C264.855 27.4824 265.373 27.8331 265.945 28.0695C266.516 28.306 267.128 28.4234 267.745 28.4148C268.518 28.4179 269.28 28.2265 269.962 27.8578C270.644 27.4891 271.225 26.9546 271.653 26.3022L270.055 25.2142C269.81 25.6087 269.469 25.9324 269.064 26.1541C268.659 26.3757 268.205 26.4877 267.745 26.4793C267.268 26.4976 266.795 26.3714 266.388 26.1169C265.981 25.8623 265.659 25.4909 265.461 25.0498L271.703 22.4185L271.503 21.8872ZM265.186 23.4685C265.166 23.1194 265.215 22.7697 265.33 22.4401C265.446 22.1105 265.625 21.8077 265.858 21.5495C266.09 21.2913 266.372 21.0829 266.685 20.9366C266.999 20.7904 267.338 20.7093 267.683 20.6981C268.04 20.6742 268.396 20.7574 268.707 20.9374C269.018 21.1174 269.27 21.3861 269.431 21.7101L265.186 23.4685ZM260.092 28.0859H262.152V14.0946H260.03L260.092 28.0859ZM256.709 19.9264H256.572C256.258 19.5739 255.872 19.2951 255.441 19.1094C255.009 18.9237 254.543 18.8355 254.075 18.8511C252.87 18.9141 251.735 19.4433 250.905 20.3296C250.074 21.2159 249.611 22.3916 249.611 23.614C249.611 24.8363 250.074 26.012 250.905 26.8983C251.735 27.7846 252.87 28.3139 254.075 28.3768C254.545 28.3934 255.012 28.3045 255.444 28.1164C255.876 27.9283 256.261 27.6457 256.572 27.2889H256.647V27.972C256.647 29.7936 255.686 30.7677 254.15 30.7677C253.635 30.7558 253.135 30.588 252.714 30.286C252.294 29.9839 251.972 29.5613 251.79 29.0726L249.993 29.8316C250.329 30.667 250.905 31.381 251.646 31.8816C252.387 32.3822 253.259 32.6463 254.15 32.64C256.572 32.64 258.619 31.1978 258.619 27.6937V19.1421H256.647L256.709 19.9264ZM254.275 26.4793C253.554 26.4308 252.878 26.1065 252.385 25.5722C251.891 25.0378 251.617 24.3332 251.617 23.6013C251.617 22.8694 251.891 22.1649 252.385 21.6305C252.878 21.0961 253.554 20.7718 254.275 20.7234C254.628 20.7425 254.974 20.8332 255.292 20.9902C255.611 21.1471 255.894 21.3672 256.127 21.6373C256.36 21.9074 256.537 22.222 256.648 22.5626C256.758 22.9032 256.801 23.2629 256.772 23.6203C256.799 23.9754 256.755 24.3324 256.643 24.6701C256.532 25.0077 256.354 25.3192 256.121 25.5859C255.888 25.8526 255.605 26.0691 255.288 26.2226C254.97 26.3761 254.626 26.4634 254.275 26.4793ZM281.191 14.082H276.26V28.0859H278.32V22.7854H281.191C281.774 22.8172 282.356 22.7285 282.904 22.5245C283.452 22.3205 283.953 22.0056 284.376 21.5989C284.8 21.1923 285.137 20.7025 285.368 20.1594C285.598 19.6162 285.717 19.0312 285.717 18.44C285.717 17.8488 285.598 17.2637 285.368 16.7206C285.137 16.1775 284.8 15.6877 284.376 15.281C283.953 14.8744 283.452 14.5595 282.904 14.3555C282.356 14.1515 281.774 14.0627 281.191 14.0946V14.082ZM281.253 20.8246H278.32V16.0428H281.253C281.579 16.0188 281.905 16.063 282.213 16.1726C282.52 16.2823 282.802 16.4549 283.041 16.6799C283.279 16.9048 283.47 17.1772 283.6 17.4801C283.73 17.7829 283.797 18.1097 283.797 18.44C283.797 18.7703 283.73 19.0971 283.6 19.3999C283.47 19.7028 283.279 19.9751 283.041 20.2001C282.802 20.425 282.52 20.5977 282.213 20.7073C281.905 20.817 281.579 20.8612 281.253 20.8372V20.8246ZM293.975 18.8891C293.223 18.8452 292.474 19.0254 291.822 19.4076C291.17 19.7898 290.642 20.3571 290.305 21.0396L292.127 21.8113C292.311 21.4749 292.586 21.1993 292.921 21.0175C293.255 20.8358 293.634 20.7556 294.012 20.7866C294.535 20.737 295.055 20.8976 295.462 21.2337C295.868 21.5698 296.128 22.0545 296.185 22.583V22.6842C295.522 22.3326 294.785 22.1502 294.037 22.1529C292.065 22.1529 290.055 23.2408 290.055 25.3028C290.074 25.7345 290.178 26.158 290.361 26.5481C290.545 26.9381 290.804 27.2869 291.123 27.5736C291.442 27.8604 291.815 28.0792 292.219 28.2172C292.623 28.3551 293.05 28.4094 293.476 28.3768C293.995 28.4061 294.512 28.295 294.975 28.0549C295.438 27.8148 295.83 27.4544 296.11 27.0106H296.185V28.0859H298.17V22.6842C298.17 20.2174 296.397 18.8891 293.975 18.8891ZM293.725 26.4793C293.051 26.4793 292.115 26.1377 292.115 25.2901C292.115 24.2149 293.288 23.7974 294.299 23.7974C294.958 23.7829 295.608 23.9443 296.185 24.2655C296.109 24.8738 295.818 25.4336 295.366 25.8408C294.913 26.248 294.33 26.4749 293.725 26.4793ZM305.411 19.1294L303.051 25.2142H302.976L300.479 19.1547H298.257L302.002 27.6178L299.905 32.3364H302.052L307.72 19.1547L305.411 19.1294ZM286.859 28.0859H288.906V14.0946H286.859V28.0859Z" fill="#004665"/>
<path d="M179.482 21.6056V9.21264C179.467 8.96467 179.501 8.71615 179.583 8.4818C179.666 8.24744 179.794 8.03202 179.96 7.84827C180.112 7.69668 180.212 7.65878 180.389 7.84827L188.925 16.3503L194.452 21.8457C194.641 22.0225 194.654 22.111 194.452 22.3005C189.911 26.7052 185.387 31.1183 180.88 35.5399C180.803 35.6362 180.692 35.6992 180.57 35.7157C180.448 35.7321 180.324 35.7008 180.225 35.6283L180.149 35.5399C179.933 35.378 179.759 35.1658 179.643 34.9215C179.527 34.6772 179.471 34.4081 179.482 34.1376V21.6056Z" fill="#004665"/>
<path d="M181.159 7.72042C181.45 7.71324 181.737 7.79209 181.983 7.94697L199.44 17.3992C199.706 17.5503 199.706 17.6132 199.44 17.8146L195.563 21.5905C195.424 21.7163 195.335 21.8044 195.158 21.5905C190.53 17.0342 185.906 12.4696 181.286 7.89663C181.237 7.84291 181.194 7.78379 181.159 7.72042Z" fill="#004665"/>
<path d="M182.279 35.1598L195.035 23.0153C195.303 22.7692 195.418 22.7938 195.66 23.0153C196.745 24.0366 197.842 25.0702 198.926 26.1406C199.117 26.3252 199.143 26.399 198.926 26.5344L182.509 34.9876L182.279 35.1598Z" fill="#004665"/>
<path d="M206.36 21.7993C206.359 22.0162 206.305 22.2296 206.202 22.4199C206.1 22.6102 205.951 22.7713 205.771 22.8884C205.509 23.0697 205.235 23.2342 204.953 23.3811L199.964 26.0911C199.93 26.1256 199.89 26.153 199.846 26.1717C199.803 26.1904 199.755 26.2 199.708 26.2C199.66 26.2 199.613 26.1904 199.569 26.1717C199.525 26.153 199.485 26.1256 199.452 26.0911C198.173 24.8722 197.021 23.6794 195.844 22.4865C195.678 22.3049 195.678 22.2271 195.844 22.0456C197.239 20.6193 198.684 19.2708 199.964 17.8964C200.03 17.8345 200.117 17.8 200.207 17.8C200.297 17.8 200.384 17.8345 200.45 17.8964C202.074 18.817 203.737 19.7117 205.362 20.6193C205.617 20.7078 205.844 20.8638 206.02 21.0713C206.195 21.2788 206.313 21.5302 206.36 21.7993Z" fill="#004665"/>
<path d="M145.127 43.5C147.759 43.5 149.9 41.3989 149.9 38.7899L149.899 5.21561C149.899 2.60872 147.76 0.5 145.125 0.5H5.27894C2.64787 0.5 0.5 2.60771 0.5 5.21561V38.7899C0.5 41.3998 2.64881 43.5 5.27894 43.5H145.127Z" stroke="white"/>
<path d="M33.6994 21.7484C33.6675 18.2091 36.6004 16.4872 36.7345 16.407C35.0735 13.9877 32.499 13.6572 31.5943 13.6308C29.4321 13.4035 27.3347 14.9234 26.2333 14.9234C25.1098 14.9234 23.4137 13.6528 21.5856 13.6901C19.2332 13.7264 17.0325 15.087 15.8255 17.1999C13.3346 21.5079 15.1923 27.8388 17.5788 31.3211C18.7726 33.0265 20.1676 34.9307 21.9934 34.8637C23.7797 34.7902 24.447 33.7261 26.6026 33.7261C28.7385 33.7261 29.365 34.8637 31.2272 34.8209C33.1443 34.7902 34.3513 33.1078 35.5033 31.387C36.8829 29.4323 37.4369 27.5072 37.4589 27.4083C37.4138 27.393 33.7357 25.9906 33.6994 21.7484Z" fill="white"/>
<path d="M30.1824 11.34C31.1431 10.1397 31.8005 8.50673 31.618 6.84961C30.2274 6.91111 28.4884 7.8105 27.487 8.98443C26.601 10.0189 25.8095 11.7145 26.014 13.309C27.576 13.4254 29.1798 12.5216 30.1824 11.34Z" fill="white"/>
<path d="M59.5513 28.4286H57.0549L55.6874 24.1359H50.9343L49.6316 28.4286H47.2012L51.9104 13.8143H54.819L59.5513 28.4286ZM55.2752 22.3349L54.0386 18.5188C53.9077 18.129 53.6626 17.2109 53.301 15.7658H53.257C53.113 16.3873 52.881 17.3054 52.5623 18.5188L51.3476 22.3349H55.2752Z" fill="white"/>
<path d="M71.6612 23.03C71.6612 24.8222 71.1764 26.2389 70.2069 27.2788C69.3384 28.2046 68.2601 28.6669 66.9728 28.6669C65.5834 28.6669 64.5852 28.1683 63.9774 27.1712H63.9334V32.7224H61.5898V21.3597C61.5898 20.233 61.5601 19.0767 61.5029 17.8907H63.564L63.6949 19.561H63.7388C64.5204 18.3025 65.7065 17.6743 67.2982 17.6743C68.5426 17.6743 69.5814 18.1652 70.4124 19.148C71.2457 20.132 71.6612 21.4256 71.6612 23.03ZM69.2736 23.1157C69.2736 22.09 69.0427 21.2444 68.5789 20.5789C68.0721 19.8849 67.3917 19.5379 66.5386 19.5379C65.9604 19.5379 65.435 19.7312 64.9656 20.1122C64.4951 20.4966 64.1873 20.9984 64.0433 21.62C63.9708 21.9099 63.9345 22.1471 63.9345 22.3338V24.0909C63.9345 24.8574 64.1697 25.5042 64.6402 26.0324C65.1107 26.5606 65.7219 26.8242 66.4738 26.8242C67.3565 26.8242 68.0435 26.4837 68.5349 25.8051C69.0274 25.1253 69.2736 24.2292 69.2736 23.1157Z" fill="white"/>
<path d="M83.7939 23.03C83.7939 24.8222 83.3091 26.2389 82.3385 27.2788C81.4711 28.2046 80.3928 28.6669 79.1055 28.6669C77.7161 28.6669 76.7179 28.1683 76.1111 27.1712H76.0672V32.7224H73.7236V21.3597C73.7236 20.233 73.6939 19.0767 73.6367 17.8907H75.6978L75.8286 19.561H75.8726C76.6531 18.3025 77.8392 17.6743 79.432 17.6743C80.6753 17.6743 81.7141 18.1652 82.5473 19.148C83.3773 20.132 83.7939 21.4256 83.7939 23.03ZM81.4063 23.1157C81.4063 22.09 81.1743 21.2444 80.7104 20.5789C80.2037 19.8849 79.5255 19.5379 78.6713 19.5379C78.092 19.5379 77.5677 19.7312 77.0972 20.1122C76.6267 20.4966 76.32 20.9984 76.176 21.62C76.1046 21.9099 76.0672 22.1471 76.0672 22.3338V24.0909C76.0672 24.8574 76.3024 25.5042 76.7707 26.0324C77.2412 26.5595 77.8524 26.8242 78.6065 26.8242C79.4892 26.8242 80.1762 26.4837 80.6676 25.8051C81.16 25.1253 81.4063 24.2292 81.4063 23.1157Z" fill="white"/>
<path d="M97.3597 24.3302C97.3597 25.5733 96.9277 26.5847 96.0603 27.3655C95.1073 28.2188 93.7805 28.6449 92.0755 28.6449C90.5014 28.6449 89.2394 28.3418 88.2842 27.7345L88.8272 25.7831C89.8561 26.4046 90.9851 26.7165 92.2151 26.7165C93.0978 26.7165 93.7849 26.5166 94.2784 26.1191C94.7698 25.7216 95.0149 25.1879 95.0149 24.5224C95.0149 23.9294 94.8127 23.4297 94.407 23.0245C94.0036 22.6193 93.3298 22.2426 92.3888 21.8945C89.8275 20.9402 88.548 19.5422 88.548 17.7039C88.548 16.5025 88.9965 15.5175 89.8946 14.751C90.7894 13.9834 91.9832 13.6001 93.476 13.6001C94.8072 13.6001 95.913 13.8318 96.7957 14.2941L96.2098 16.2027C95.3854 15.7547 94.4532 15.5307 93.41 15.5307C92.5856 15.5307 91.9414 15.7338 91.4797 16.1379C91.0895 16.4992 90.8938 16.9396 90.8938 17.4612C90.8938 18.0389 91.117 18.5166 91.5655 18.8921C91.9557 19.2391 92.6647 19.6147 93.6936 20.0199C94.9523 20.5262 95.8768 21.1181 96.4715 21.7968C97.064 22.4732 97.3597 23.3199 97.3597 24.3302Z" fill="white"/>
<path d="M105.108 19.6479H102.524V24.7642C102.524 26.0655 102.979 26.7156 103.892 26.7156C104.311 26.7156 104.658 26.6794 104.933 26.6069L104.998 28.3848C104.536 28.5573 103.928 28.644 103.175 28.644C102.25 28.644 101.526 28.3618 101.004 27.7984C100.484 27.234 100.223 26.2874 100.223 24.9575V19.6457H98.6836V17.8886H100.223V15.9592L102.524 15.2651V17.8886H105.108V19.6479Z" fill="white"/>
<path d="M116.763 23.0727C116.763 24.6925 116.299 26.0224 115.373 27.0624C114.402 28.1331 113.114 28.6668 111.508 28.6668C109.96 28.6668 108.728 28.1539 107.809 27.1282C106.89 26.1026 106.431 24.8078 106.431 23.2474C106.431 21.6144 106.903 20.2768 107.852 19.2369C108.798 18.1958 110.076 17.6753 111.682 17.6753C113.23 17.6753 114.475 18.1881 115.415 19.2149C116.314 20.2109 116.763 21.4969 116.763 23.0727ZM114.331 23.1485C114.331 22.1766 114.123 21.3431 113.702 20.648C113.211 19.8068 112.508 19.3873 111.598 19.3873C110.656 19.3873 109.941 19.8079 109.449 20.648C109.028 21.3442 108.82 22.1909 108.82 23.1924C108.82 24.1643 109.028 24.9978 109.449 25.6919C109.956 26.533 110.664 26.9525 111.577 26.9525C112.472 26.9525 113.175 26.5243 113.681 25.6699C114.113 24.9616 114.331 24.1193 114.331 23.1485Z" fill="white"/>
<path d="M124.381 19.9497C124.149 19.9069 123.902 19.8849 123.642 19.8849C122.818 19.8849 122.18 20.1957 121.732 20.8183C121.341 21.3674 121.146 22.0615 121.146 22.8994V28.4286H118.803L118.825 21.2093C118.825 19.9947 118.796 18.8889 118.737 17.8918H120.779L120.864 19.908H120.929C121.177 19.215 121.567 18.6572 122.101 18.2388C122.623 17.8621 123.187 17.6743 123.795 17.6743C124.012 17.6743 124.207 17.6897 124.381 17.7171V19.9497Z" fill="white"/>
<path d="M134.862 22.6608C134.862 23.0803 134.834 23.4339 134.776 23.7227H127.745C127.773 24.7638 128.112 25.5599 128.765 26.109C129.358 26.5999 130.124 26.8459 131.065 26.8459C132.106 26.8459 133.056 26.6801 133.91 26.3473L134.277 27.9726C133.279 28.4075 132.1 28.6238 130.741 28.6238C129.105 28.6238 127.821 28.1428 126.887 27.1819C125.954 26.221 125.487 24.9307 125.487 23.312C125.487 21.723 125.922 20.3997 126.791 19.3444C127.701 18.2177 128.931 17.6543 130.479 17.6543C131.999 17.6543 133.15 18.2177 133.932 19.3444C134.551 20.2394 134.862 21.3463 134.862 22.6608ZM132.627 22.0535C132.642 21.3595 132.49 20.7599 132.172 20.2536C131.766 19.6024 131.143 19.2774 130.304 19.2774C129.538 19.2774 128.915 19.5947 128.439 20.2317C128.049 20.7379 127.817 21.3452 127.745 22.0524H132.627V22.0535Z" fill="white"/>
</svg>
