<svg width="40" height="40" viewBox="0 0 40 40" fill="none" xmlns="http://www.w3.org/2000/svg">
<rect width="40" height="40" rx="8" fill="#111111" fill-opacity="0.1"/>
<path d="M12.4473 12.4473C12.7338 12.1609 13.1223 12 13.5273 12C13.9324 12 14.3209 12.1609 14.6074 12.4473L20.0092 17.8491L25.411 12.4473C25.6992 12.169 26.0851 12.015 26.4856 12.0185C26.8862 12.022 27.2693 12.1826 27.5526 12.4659C27.8358 12.7491 27.9965 13.1323 27.9999 13.5328C28.0034 13.9334 27.8494 14.3193 27.5712 14.6074L22.1693 20.0092L27.5712 25.411C27.8494 25.6992 28.0034 26.0851 27.9999 26.4856C27.9965 26.8862 27.8358 27.2693 27.5526 27.5526C27.2693 27.8358 26.8862 27.9965 26.4856 27.9999C26.0851 28.0034 25.6992 27.8494 25.411 27.5712L20.0092 22.1693L14.6074 27.5712C14.3193 27.8494 13.9334 28.0034 13.5328 27.9999C13.1323 27.9965 12.7491 27.8358 12.4659 27.5526C12.1826 27.2693 12.022 26.8862 12.0185 26.4856C12.015 26.0851 12.169 25.6992 12.4473 25.411L17.8491 20.0092L12.4473 14.6074C12.1609 14.3209 12 13.9324 12 13.5273C12 13.1223 12.1609 12.7338 12.4473 12.4473Z" fill="black"/>
</svg>
