<svg width="72" height="71" viewBox="0 0 72 71" fill="none" xmlns="http://www.w3.org/2000/svg">
<rect x="0.411621" y="0.0596924" width="70.8264" height="70.8264" rx="11.3322" fill="#555555" fill-opacity="0.1"/>
<path fill-rule="evenodd" clip-rule="evenodd" d="M42.8217 22.7242C44.7212 22.7242 46.5485 23.475 47.8928 24.8221C49.2385 26.1664 49.9907 27.9795 49.9907 29.8777V41.0682C49.9907 45.0204 46.7752 48.2217 42.8217 48.2217H28.8278C24.8743 48.2217 21.6602 45.0204 21.6602 41.0682V29.8777C21.6602 25.9256 24.8601 22.7242 28.8278 22.7242H42.8217ZM45.0753 31.9883L45.1886 31.875C45.5271 31.4642 45.5271 30.8692 45.173 30.4584C44.9761 30.2474 44.7055 30.1185 44.4236 30.0901C44.1262 30.0746 43.8429 30.1751 43.629 30.3735L37.2419 35.4729C36.4203 36.1543 35.2431 36.1543 34.4088 35.4729L28.0344 30.3735C27.5939 30.0476 26.9848 30.0901 26.6179 30.4726C26.2354 30.8551 26.1929 31.4642 26.5173 31.8891L26.7029 32.0733L33.1481 37.102C33.9413 37.7252 34.9032 38.0652 35.9103 38.0652C36.9146 38.0652 37.8935 37.7252 38.6853 37.102L45.0753 31.9883Z" fill="black"/>
</svg>
