<svg width="52" height="52" viewBox="0 0 52 52" fill="none" xmlns="http://www.w3.org/2000/svg">
<path d="M12.6403 26.3725C13.9689 25.6056 15.6677 26.0608 16.4347 27.3893C17.4099 29.0783 18.8125 30.481 20.5016 31.456C22.1906 32.4313 24.1066 32.9448 26.0569 32.9448C28.0075 32.9448 29.9235 32.4313 31.6125 31.456C33.3015 30.481 34.7041 29.0783 35.6793 27.3893C36.4463 26.0608 38.1451 25.6056 39.4736 26.3725C40.8024 27.1398 41.2574 28.8385 40.4904 30.167C39.0276 32.7005 36.9239 34.8045 34.3901 36.2673C31.8565 37.73 28.9825 38.5 26.0569 38.5C23.1315 38.5 20.2575 37.73 17.7239 36.2673C15.1903 34.8045 13.0864 32.7005 11.6236 30.167C10.8565 28.8385 11.3117 27.1398 12.6403 26.3725Z" stroke="#00C2FF" stroke-width="2"/>
<path fill-rule="evenodd" clip-rule="evenodd" d="M26.0004 1C12.193 1 1 12.1929 1 26C1 39.807 12.193 51 26.0004 51H48.5007C49.8815 51 51.0008 49.8807 51.0008 48.5V26C51.0008 12.1929 39.8076 1 26.0004 1ZM16.4339 27.3892C15.6669 26.0607 13.968 25.6056 12.6395 26.3725C11.3109 27.1397 10.8557 28.8385 11.6228 30.167C13.0855 32.7005 15.1895 34.8045 17.7231 36.2673C20.2566 37.73 23.1307 38.5 26.0561 38.5C28.9817 38.5 31.8557 37.73 34.3892 36.2673C36.923 34.8045 39.0268 32.7005 40.4896 30.167C41.2566 28.8385 40.8016 27.1397 39.4728 26.3725C38.1443 25.6056 36.4455 26.0607 35.6785 27.3892C34.7033 29.0782 33.3007 30.481 31.6117 31.456C29.9227 32.4312 28.0067 32.9447 26.0561 32.9447C24.1058 32.9447 22.1898 32.4312 20.5008 31.456C18.8117 30.481 17.4091 29.0782 16.4339 27.3892Z" stroke="#00C2FF" stroke-width="2"/>
</svg>
