<svg width="72" height="71" viewBox="0 0 72 71" fill="none" xmlns="http://www.w3.org/2000/svg">
<rect x="0.535156" y="0.0714111" width="70.8264" height="70.8264" rx="11.3322" fill="#555555" fill-opacity="0.1"/>
<path fill-rule="evenodd" clip-rule="evenodd" d="M23.9072 31.6852C23.9072 25.1694 29.3522 19.9029 35.9384 19.9029C42.5432 19.9029 47.9882 25.1694 47.9882 31.6852C47.9882 34.9686 46.7941 38.0169 44.8286 40.6006C42.6604 43.4505 39.9879 45.9336 36.9797 47.8827C36.2912 48.3332 35.6699 48.3671 34.9143 47.8827C31.889 45.9336 29.2165 43.4505 27.0668 40.6006C25.0999 38.0169 23.9072 34.9686 23.9072 31.6852ZM31.9734 32.0521C31.9734 34.2349 33.7546 35.9516 35.9386 35.9516C38.124 35.9516 39.9223 34.2349 39.9223 32.0521C39.9223 29.8862 38.124 28.0859 35.9386 28.0859C33.7546 28.0859 31.9734 29.8862 31.9734 32.0521Z" fill="black"/>
</svg>
