<svg width="72" height="71" viewBox="0 0 72 71" fill="none" xmlns="http://www.w3.org/2000/svg">
<path d="M0.411804 11.4036C0.411804 5.14501 5.48541 0.0714111 11.744 0.0714111H59.9059C66.1646 0.0714111 71.2382 5.14502 71.2382 11.4036V59.5656C71.2382 65.8242 66.1646 70.8978 59.9059 70.8978H11.744C5.4854 70.8978 0.411804 65.8242 0.411804 59.5655V11.4036Z" fill="#555555" fill-opacity="0.1"/>
<path d="M44.5601 38.8557C43.6086 38.651 42.8559 39.0927 42.1894 39.4785C41.5069 39.8761 40.209 40.929 39.4651 40.6595C35.6562 39.0913 32.0739 35.7575 30.5231 31.9333C30.2498 31.1735 31.2978 29.8674 31.6924 29.1768C32.0753 28.5083 32.5079 27.7484 32.3106 26.7898C32.1323 25.9284 29.826 22.9937 29.0104 22.1911C28.4725 21.661 27.9215 21.3695 27.3559 21.3223C25.2293 21.231 22.8542 24.0686 22.4377 24.7474C21.3941 26.1949 21.4 28.121 22.4552 30.4564C24.9984 36.7293 34.617 46.1962 40.9135 48.835C42.0754 49.3783 43.138 49.6507 44.0924 49.6507C45.0264 49.6507 45.858 49.3901 46.5727 48.8732C47.112 48.5625 50.0659 46.0696 49.9884 43.8858C49.9416 43.3292 49.6508 42.7726 49.1275 42.2336C48.331 41.4105 45.4151 39.0353 44.5601 38.8557" fill="black"/>
</svg>
