<svg width="71" height="72" viewBox="0 0 71 72" fill="none" xmlns="http://www.w3.org/2000/svg">
<rect x="0.0644531" y="0.80957" width="70.8264" height="70.8264" rx="11.3322" fill="#555555" fill-opacity="0.1"/>
<path fill-rule="evenodd" clip-rule="evenodd" d="M30.8053 24.9586C32.0137 24.903 32.399 24.8906 35.4772 24.8906C38.5555 24.8906 38.9408 24.904 40.1482 24.9586C41.3556 25.0132 42.1797 25.2059 42.9009 25.4851C43.656 25.7704 44.3411 26.2165 44.9077 26.7934C45.4846 27.359 45.9297 28.043 46.214 28.7992C46.4942 29.5204 46.6858 30.3445 46.7415 31.5498C46.7971 32.7603 46.8095 33.1456 46.8095 36.2228C46.8095 39.3011 46.7961 39.6864 46.7415 40.8948C46.6869 42.1001 46.4942 42.9243 46.214 43.6454C45.9297 44.4017 45.4839 45.0869 44.9077 45.6533C44.3411 46.2302 43.656 46.6753 42.9009 46.9596C42.1797 47.2398 41.3556 47.4314 40.1502 47.4871C38.9408 47.5427 38.5555 47.5551 35.4772 47.5551C32.399 47.5551 32.0137 47.5417 30.8053 47.4871C29.5999 47.4325 28.7758 47.2398 28.0546 46.9596C27.2984 46.6752 26.6132 46.2295 26.0468 45.6533C25.4703 45.0874 25.0241 44.4025 24.7394 43.6465C24.4603 42.9253 24.2686 42.1012 24.213 40.8958C24.1574 39.6853 24.145 39.3001 24.145 36.2228C24.145 33.1446 24.1584 32.7593 24.213 31.5519C24.2676 30.3445 24.4603 29.5204 24.7394 28.7992C25.0245 28.0431 25.471 27.3583 26.0478 26.7924C26.6134 26.216 27.2979 25.7698 28.0536 25.4851C28.7747 25.2059 29.5989 25.0142 30.8042 24.9586H30.8053ZM40.0565 26.9984C38.8614 26.9438 38.5029 26.9325 35.4772 26.9325C32.4515 26.9325 32.093 26.9438 30.898 26.9984C29.7926 27.0489 29.193 27.2333 28.7933 27.3889C28.2648 27.5949 27.8867 27.8391 27.4901 28.2357C27.1141 28.6015 26.8248 29.0467 26.6433 29.5389C26.4877 29.9386 26.3033 30.5382 26.2528 31.6436C26.1982 32.8386 26.1869 33.1971 26.1869 36.2228C26.1869 39.2485 26.1982 39.6071 26.2528 40.8021C26.3033 41.9075 26.4877 42.5071 26.6433 42.9068C26.8246 43.3982 27.1141 43.8443 27.4901 44.21C27.8558 44.586 28.3019 44.8755 28.7933 45.0568C29.193 45.2124 29.7926 45.3968 30.898 45.4473C32.093 45.5019 32.4505 45.5132 35.4772 45.5132C38.504 45.5132 38.8614 45.5019 40.0565 45.4473C41.1619 45.3968 41.7615 45.2124 42.1612 45.0568C42.6897 44.8508 43.0678 44.6066 43.4644 44.21C43.8404 43.8443 44.1299 43.3982 44.3112 42.9068C44.4668 42.5071 44.6512 41.9075 44.7017 40.8021C44.7563 39.6071 44.7676 39.2485 44.7676 36.2228C44.7676 33.1971 44.7563 32.8386 44.7017 31.6436C44.6512 30.5382 44.4668 29.9386 44.3112 29.5389C44.1052 29.0104 43.861 28.6323 43.4644 28.2357C43.0986 27.8597 42.6533 27.5704 42.1612 27.3889C41.7615 27.2333 41.1619 27.0489 40.0565 26.9984ZM34.0298 39.7163C34.8382 40.0527 35.7383 40.0982 36.5764 39.8447C37.4145 39.5913 38.1386 39.0548 38.6251 38.3268C39.1116 37.5987 39.3302 36.7244 39.2437 35.8531C39.1572 34.9818 38.7708 34.1676 38.1506 33.5495C37.7553 33.1544 37.2772 32.8518 36.7509 32.6636C36.2246 32.4755 35.6631 32.4063 35.1069 32.4612C34.5506 32.516 34.0135 32.6936 33.5341 32.9809C33.0547 33.2683 32.6449 33.6584 32.3344 34.1231C32.0239 34.5879 31.8202 35.1157 31.7381 35.6686C31.6561 36.2214 31.6976 36.7856 31.8597 37.3205C32.0219 37.8554 32.3006 38.3477 32.6758 38.762C33.0511 39.1763 33.5135 39.5022 34.0298 39.7163ZM31.3585 32.1041C31.8994 31.5632 32.5415 31.1342 33.2482 30.8414C33.9549 30.5487 34.7123 30.3981 35.4772 30.3981C36.2422 30.3981 36.9996 30.5487 37.7063 30.8414C38.413 31.1342 39.0551 31.5632 39.596 32.1041C40.1369 32.645 40.5659 33.2871 40.8586 33.9938C41.1514 34.7005 41.302 35.4579 41.302 36.2228C41.302 36.9878 41.1514 37.7452 40.8586 38.4519C40.5659 39.1586 40.1369 39.8007 39.596 40.3416C38.5036 41.4339 37.0221 42.0476 35.4772 42.0476C33.9324 42.0476 32.4508 41.4339 31.3585 40.3416C30.2661 39.2492 29.6525 37.7677 29.6525 36.2228C29.6525 34.678 30.2661 33.1965 31.3585 32.1041ZM42.5939 31.2655C42.7279 31.1391 42.8352 30.987 42.9094 30.8184C42.9836 30.6497 43.0233 30.4679 43.026 30.2837C43.0286 30.0994 42.9943 29.9165 42.9251 29.7458C42.8558 29.575 42.753 29.4199 42.6227 29.2896C42.4924 29.1593 42.3373 29.0565 42.1665 28.9872C41.9958 28.918 41.8129 28.8837 41.6286 28.8863C41.4444 28.889 41.2626 28.9287 41.0939 29.0029C40.9253 29.0771 40.7732 29.1844 40.6468 29.3184C40.4009 29.5791 40.2663 29.9253 40.2715 30.2837C40.2767 30.642 40.4214 30.9841 40.6748 31.2375C40.9282 31.4909 41.2703 31.6356 41.6286 31.6408C41.987 31.646 42.3332 31.5114 42.5939 31.2655Z" fill="black"/>
</svg>
