<svg width="45" height="45" viewBox="0 0 45 45" fill="none" xmlns="http://www.w3.org/2000/svg">
<rect width="44.5312" height="44.5312" rx="6.67969" fill="#00C2FF"/>
<path d="M27.8311 11.1328H16.6982C13.624 11.1328 11.1318 13.625 11.1318 16.6992V27.832C11.1318 30.9063 13.624 33.3984 16.6982 33.3984H27.8311C30.9053 33.3984 33.3975 30.9063 33.3975 27.832V16.6992C33.3975 13.625 30.9053 11.1328 27.8311 11.1328Z" stroke="white" stroke-width="1.5" stroke-linecap="round" stroke-linejoin="round"/>
<path d="M26.7184 21.5643C26.8558 22.4909 26.6976 23.4371 26.2662 24.2685C25.8348 25.0999 25.1522 25.7741 24.3156 26.1952C23.4789 26.6163 22.5308 26.7629 21.606 26.6141C20.6813 26.4653 19.827 26.0287 19.1646 25.3664C18.5023 24.7041 18.0657 23.8498 17.9169 22.925C17.7681 22.0002 17.9147 21.0521 18.3358 20.2155C18.7569 19.3788 19.4311 18.6962 20.2625 18.2648C21.0939 17.8334 22.0402 17.6752 22.9667 17.8126C23.9118 17.9527 24.7867 18.3931 25.4623 19.0687C26.1379 19.7443 26.5783 20.6192 26.7184 21.5643Z" stroke="white" stroke-width="1.5" stroke-linecap="round" stroke-linejoin="round"/>
<path d="M28.3887 16.1426H28.3997" stroke="white" stroke-width="1.5" stroke-linecap="round" stroke-linejoin="round"/>
</svg>
