<svg width="100" height="100" viewBox="0 0 100 100" fill="none" xmlns="http://www.w3.org/2000/svg">
<rect width="100" height="100" rx="50" fill="#E5F9FF"/>
<path d="M50.1182 42.1882C45.4869 42.1882 41.8057 45.6975 41.8057 50.1123C41.8057 54.5271 45.4869 58.0364 50.1182 58.0364C54.7494 58.0364 58.4307 54.5271 58.4307 50.1123C58.4307 45.6975 54.7494 42.1882 50.1182 42.1882ZM50.1182 55.7724C46.7932 55.7724 44.1807 53.2819 44.1807 50.1123C44.1807 46.9427 46.7932 44.4523 50.1182 44.4523C53.4432 44.4523 56.0557 46.9427 56.0557 50.1123C56.0557 53.2819 53.4432 55.7724 50.1182 55.7724Z" fill="#00C2FF"/>
<path d="M67.575 46.3765L64.25 45.3577L63.5375 43.6597L65.2 40.7165C65.5562 40.0373 65.4375 39.1317 64.8438 38.5657L61.9937 35.8488C61.4 35.2828 60.45 35.1696 59.7375 35.5092L56.65 37.0941L54.8687 36.4148L53.8 33.2452C53.5625 32.566 52.85 32 52.0188 32H47.9812C47.15 32 46.4375 32.566 46.3187 33.3584L45.25 36.528C44.5375 36.6412 43.9437 36.8676 43.35 37.2073L40.2625 35.6224C39.55 35.2828 38.6 35.396 38.0062 35.962L35.1562 38.6789C34.5625 39.2449 34.4437 40.1505 34.8 40.8297L36.3438 43.6597C36.1062 44.2257 35.8688 44.9049 35.6312 45.4709L32.3062 46.4897C31.5937 46.7161 31 47.3954 31 48.1878V52.0366C31 52.829 31.5938 53.5082 32.425 53.7346L35.75 54.7534L36.4625 56.4514L34.8 59.3947C34.4437 60.0739 34.5625 60.9795 35.1562 61.5455L38.0062 64.2623C38.6 64.8283 39.55 64.9415 40.2625 64.6019L43.35 63.0171L45.1312 63.6963L46.2 66.9792C46.4375 67.6584 47.15 68.2244 47.9812 68.2244H52.0188C52.85 68.2244 53.5625 67.6584 53.8 66.9792L54.8687 63.6963L56.65 63.0171L59.7375 64.6019C60.45 64.9415 61.4 64.8283 61.9937 64.2623L64.8438 61.5455C65.4375 60.9795 65.5562 60.0739 65.2 59.3947L63.5375 56.4514L64.25 54.7534L67.6938 53.7346C68.4062 53.5082 69 52.829 69 52.0366V48.1878C69 47.3954 68.4062 46.6029 67.575 46.3765ZM66.625 51.697L62.35 52.9422L62.2312 53.5082L61.1625 55.8854L60.8062 56.4514L62.9438 60.1871L60.5688 62.4511L56.65 60.4135L56.0562 60.7531C55.225 61.2059 54.3937 61.5455 53.5625 61.7719L52.9688 61.8851L51.6625 65.9603H48.3375L47.0312 61.8851L46.4375 61.7719L43.9437 60.7531L43.35 60.4135L39.4313 62.4511L37.0563 60.1871L39.1937 56.4514L38.8375 55.8854C38.3625 55.093 38.0062 54.3006 37.7687 53.5082L37.65 52.9422L33.375 51.697V48.5274L37.4125 47.3954L37.65 46.8293C37.8875 45.9237 38.2438 45.1313 38.7188 44.3389L39.075 43.7729L37.0563 40.0373L39.4313 37.7733L43.2312 39.8109L43.825 39.4713C44.6562 39.0185 45.4875 38.6789 46.4375 38.4525L47.0312 38.2261L48.3375 34.264H51.6625L52.9688 38.2261L53.5625 38.4525C54.3937 38.6789 55.225 39.0185 56.0562 39.4713L56.65 39.8109L60.5688 37.7733L62.9438 40.0373L60.8062 43.7729L61.1625 44.3389C61.6375 45.1313 61.9937 45.9237 62.2312 46.7161L62.35 47.2822L66.625 48.5274V51.697Z" fill="#00C2FF"/>
</svg>
