<svg width="72" height="72" viewBox="0 0 72 72" fill="none" xmlns="http://www.w3.org/2000/svg">
<rect x="0.716797" y="0.80957" width="70.8264" height="70.8264" rx="11.3322" fill="#555555" fill-opacity="0.1"/>
<path d="M45.5255 44.2021H42.1674V38.943C42.1674 37.6889 42.145 36.0745 40.4208 36.0745C38.6717 36.0745 38.4041 37.4409 38.4041 38.8517V44.2017H35.046V33.3869H38.2698V34.8649H38.3149C38.6376 34.3132 39.1038 33.8594 39.6639 33.5518C40.224 33.2441 40.8571 33.0942 41.4958 33.1179C44.8994 33.1179 45.5269 35.3567 45.5269 38.2692L45.5255 44.2021ZM31.2568 31.9087C30.1805 31.9089 29.3079 31.0365 29.3077 29.9602C29.3075 28.8839 30.1798 28.0112 31.2561 28.011C32.3324 28.0108 33.2051 28.8832 33.2053 29.9595C33.2054 30.4763 33.0001 30.972 32.6347 31.3376C32.2693 31.7031 31.7737 31.9086 31.2568 31.9087ZM32.936 44.2022H29.5743V33.3869H32.9359V44.2021L32.936 44.2022ZM47.1997 24.8923H27.8868C26.9741 24.882 26.2255 25.6132 26.2144 26.526V45.9194C26.2252 46.8326 26.9736 47.5645 27.8867 47.5549H47.1997C48.1147 47.5663 48.8661 46.8344 48.8788 45.9194V26.5245C48.8658 25.6099 48.1143 24.8788 47.1997 24.8908" fill="black"/>
</svg>
