<svg width="174" height="32" viewBox="0 0 174 32" fill="none" xmlns="http://www.w3.org/2000/svg">
<path d="M43.303 17.736V24H40.063V8H43.303V13.6752C44.2823 12.6816 45.3767 12.1848 46.5863 12.1848C47.8103 12.1848 48.8399 12.6168 49.6751 13.4808C50.5103 14.3448 50.928 15.4968 50.928 16.9368V24H47.6879V17.6496C47.6879 15.864 47.0327 14.9712 45.7223 14.9712C45.0743 14.9712 44.5055 15.2088 44.0158 15.684C43.5406 16.1448 43.303 16.8288 43.303 17.736Z" fill="#555555"/>
<path d="M64.2338 22.1553C62.9234 23.3937 61.3825 24.0129 59.6113 24.0129C57.8545 24.0129 56.4001 23.4729 55.248 22.3929C54.096 21.2985 53.52 19.8369 53.52 18.0081C53.52 16.1793 54.1032 14.7249 55.2696 13.6449C56.4505 12.5649 57.8401 12.0249 59.4385 12.0249C61.0369 12.0249 62.3906 12.5073 63.4994 13.4721C64.6226 14.4369 65.1842 15.7617 65.1842 17.4465V19.1745H56.7169C56.8177 19.8081 57.1489 20.3265 57.7105 20.7297C58.2721 21.1329 58.9057 21.3345 59.6113 21.3345C60.7489 21.3345 61.6849 20.9529 62.4194 20.1897L64.2338 22.1553ZM61.9009 16.8633C61.8289 16.1721 61.5697 15.6393 61.1233 15.2649C60.6769 14.8905 60.1297 14.7033 59.4817 14.7033C58.8481 14.7033 58.2649 14.8977 57.7321 15.2865C57.1993 15.6753 56.8897 16.2009 56.8033 16.8633H61.9009Z" fill="#555555"/>
<path d="M71.1033 24H67.8633V8H71.1033V24Z" fill="#555555"/>
<path d="M77.4998 24H74.2598V8H77.4998V24Z" fill="#555555"/>
<path d="M83.3749 18.0297C83.3749 18.9801 83.6413 19.7577 84.1741 20.3625C84.7213 20.9529 85.4126 21.2481 86.2478 21.2481C87.0974 21.2481 87.7886 20.9529 88.3214 20.3625C88.8686 19.7577 89.1422 18.9801 89.1422 18.0297C89.1422 17.0793 88.8686 16.3017 88.3214 15.6969C87.7886 15.0921 87.0974 14.7897 86.2478 14.7897C85.4126 14.7897 84.7213 15.0921 84.1741 15.6969C83.6413 16.3017 83.3749 17.0793 83.3749 18.0297ZM92.4039 18.0297C92.4039 19.7145 91.8207 21.1329 90.6542 22.2849C89.4878 23.4369 88.019 24.0129 86.2478 24.0129C84.491 24.0129 83.0293 23.4369 81.8629 22.2849C80.6965 21.1329 80.1133 19.7145 80.1133 18.0297C80.1133 16.3449 80.6965 14.9265 81.8629 13.7745C83.0293 12.6081 84.491 12.0249 86.2478 12.0249C88.019 12.0249 89.4878 12.6081 90.6542 13.7745C91.8207 14.9265 92.4039 16.3449 92.4039 18.0297Z" fill="#555555"/>
<path d="M101.788 12.3447C103.141 12.3447 104.344 12.9135 105.395 14.0511C106.461 15.1743 106.993 16.5927 106.993 18.3063C106.993 20.0199 106.461 21.4527 105.395 22.6047C104.344 23.7567 103.105 24.3327 101.68 24.3327C100.269 24.3327 99.1309 23.7639 98.2669 22.6263V28.0303H95.0269V12.5391H98.2669V13.8351C99.2605 12.8415 100.434 12.3447 101.788 12.3447ZM98.2237 18.3711C98.2237 19.3071 98.4829 20.0775 99.0013 20.6823C99.5341 21.2727 100.175 21.5679 100.924 21.5679C101.673 21.5679 102.328 21.2727 102.889 20.6823C103.451 20.0775 103.732 19.3071 103.732 18.3711C103.732 17.4351 103.458 16.6503 102.911 16.0167C102.364 15.3831 101.709 15.0663 100.945 15.0663C100.182 15.0663 99.5341 15.3831 99.0013 16.0167C98.4829 16.6359 98.2237 17.4207 98.2237 18.3711Z" fill="#555555"/>
<path d="M115.742 15.2304C114.777 15.2304 114.057 15.576 113.582 16.2672C113.107 16.944 112.869 17.844 112.869 18.9672V24H109.629V12.3792H112.869V13.9128C113.287 13.4376 113.805 13.0344 114.424 12.7032C115.058 12.372 115.699 12.1992 116.347 12.1848L116.368 15.2304H115.742Z" fill="#555555"/>
<path d="M121.148 18.0297C121.148 18.9801 121.415 19.7577 121.948 20.3625C122.495 20.9529 123.186 21.2481 124.021 21.2481C124.871 21.2481 125.562 20.9529 126.095 20.3625C126.642 19.7577 126.916 18.9801 126.916 18.0297C126.916 17.0793 126.642 16.3017 126.095 15.6969C125.562 15.0921 124.871 14.7897 124.021 14.7897C123.186 14.7897 122.495 15.0921 121.948 15.6969C121.415 16.3017 121.148 17.0793 121.148 18.0297ZM130.177 18.0297C130.177 19.7145 129.594 21.1329 128.428 22.2849C127.261 23.4369 125.792 24.0129 124.021 24.0129C122.264 24.0129 120.803 23.4369 119.636 22.2849C118.47 21.1329 117.887 19.7145 117.887 18.0297C117.887 16.3449 118.47 14.9265 119.636 13.7745C120.803 12.6081 122.264 12.0249 124.021 12.0249C125.792 12.0249 127.261 12.6081 128.428 13.7745C129.594 14.9265 130.177 16.3449 130.177 18.0297Z" fill="#555555"/>
<path d="M136.476 12.0608V12.8384H139.285V15.1712H136.476V24.0312H133.215V15.1712H131.854V12.8384H133.215V12.1256C133.215 10.8584 133.596 9.8576 134.36 9.1232C135.137 8.3744 136.095 8 137.232 8C138.385 8 139.429 8.432 140.365 9.296L139.198 11.4776C138.723 10.9304 138.197 10.6568 137.621 10.6568C137.29 10.6568 137.016 10.7792 136.8 11.024C136.584 11.2544 136.476 11.6 136.476 12.0608Z" fill="#555555"/>
<path d="M144.757 24.0312H141.517V12.8072H144.757V24.0312ZM141.776 11.2616C141.416 10.8872 141.236 10.4336 141.236 9.9008C141.236 9.368 141.416 8.9216 141.776 8.5616C142.151 8.1872 142.604 8 143.137 8C143.67 8 144.116 8.1872 144.476 8.5616C144.851 8.9216 145.038 9.368 145.038 9.9008C145.038 10.4336 144.851 10.8872 144.476 11.2616C144.116 11.6216 143.67 11.8016 143.137 11.8016C142.604 11.8016 142.151 11.6216 141.776 11.2616Z" fill="#555555"/>
<path d="M151.28 23.9998H148.04V7.97266H151.28V23.9998Z" fill="#555555"/>
<path d="M164.714 22.1426C163.404 23.381 161.863 24.0002 160.092 24.0002C158.335 24.0002 156.881 23.4602 155.729 22.3802C154.576 21.2858 154 19.8242 154 17.9954C154 16.1666 154.584 14.7122 155.75 13.6322C156.931 12.5522 158.161 12.0122 159.759 12.0122C161.358 12.0122 162.871 12.4946 163.98 13.4594C165.103 14.4242 165.665 15.749 165.665 17.4338V19.1618H157.197C157.298 19.7954 157.629 20.3138 158.191 20.717C158.753 21.1202 159.386 21.3218 160.092 21.3218C161.23 21.3218 162.166 20.9402 162.9 20.177L164.714 22.1426ZM162.382 16.8506C162.31 16.1594 162.05 15.6266 161.604 15.2522C161.158 14.8778 160.61 14.6906 159.962 14.6906C159.329 14.6906 158.745 14.885 158.213 15.2738C157.68 15.6626 157.37 16.1882 157.284 16.8506H162.382Z" fill="#555555"/>
<path d="M169.001 0.64H167.748V4H166.9V0.64H165.665V0H169.001V0.64ZM170.458 0L171.509 2.8889L172.557 0H173.665V4H172.809V2.8889L172.903 0.995555L171.796 4H171.218L170.116 1L170.201 2.8889V4H169.359V0H170.458Z" fill="#555555"/>
<path d="M7.51172 16.2384C8.36201 15.7476 9.44926 16.0389 9.94016 16.8891C10.5643 17.9701 11.4619 18.8679 12.5429 19.4919C13.6239 20.116 14.8502 20.4446 16.0984 20.4446C17.3467 20.4446 18.573 20.116 19.6539 19.4919C20.7349 18.8679 21.6325 17.9701 22.2567 16.8891C22.7476 16.0389 23.8348 15.7476 24.6851 16.2384C25.5355 16.7295 25.8267 17.8167 25.3358 18.6669C24.3996 20.2883 23.0532 21.6349 21.4316 22.571C19.8101 23.5072 17.9707 24 16.0984 24C14.2261 24 12.3867 23.5072 10.7652 22.571C9.14371 21.6349 7.7972 20.2883 6.86103 18.6669C6.37012 17.8167 6.66144 16.7295 7.51172 16.2384Z" fill="white"/>
<path fill-rule="evenodd" clip-rule="evenodd" d="M16.0627 0C7.22605 0 0.0625 7.16344 0.0625 16C0.0625 24.8365 7.22605 32 16.0627 32H30.463C31.3467 32 32.063 31.2837 32.063 30.4V16C32.063 7.16344 24.8994 0 16.0627 0ZM9.9402 16.8891C9.4493 16.0389 8.36205 15.7476 7.51176 16.2384C6.66148 16.7294 6.37016 17.8166 6.86107 18.6669C7.79724 20.2883 9.14376 21.6349 10.7653 22.571C12.3867 23.5072 14.2261 24 16.0984 24C17.9708 24 19.8102 23.5072 21.4316 22.571C23.0532 21.6349 24.3997 20.2883 25.3358 18.6669C25.8267 17.8166 25.5355 16.7294 24.6851 16.2384C23.8349 15.7476 22.7476 16.0389 22.2568 16.8891C21.6326 17.9701 20.735 18.8678 19.654 19.4918C18.573 20.116 17.3468 20.4446 16.0984 20.4446C14.8502 20.4446 13.624 20.116 12.543 19.4918C11.462 18.8678 10.5643 17.9701 9.9402 16.8891Z" fill="#00C2FF"/>
</svg>
