<svg width="166" height="32" viewBox="0 0 166 32" fill="none" xmlns="http://www.w3.org/2000/svg">
<path d="M43.2405 17.736V24H40.0005V8H43.2405V13.6752C44.2198 12.6816 45.3142 12.1848 46.5238 12.1848C47.7478 12.1848 48.7774 12.6168 49.6126 13.4808C50.4478 14.3448 50.8655 15.4968 50.8655 16.9368V24H47.6254V17.6496C47.6254 15.864 46.9702 14.9712 45.6598 14.9712C45.0118 14.9712 44.443 15.2088 43.9533 15.684C43.4781 16.1448 43.2405 16.8288 43.2405 17.736Z" fill="white"/>
<path d="M64.1713 22.1553C62.8609 23.3937 61.32 24.0129 59.5488 24.0129C57.792 24.0129 56.3376 23.4729 55.1855 22.3929C54.0335 21.2985 53.4575 19.8369 53.4575 18.0081C53.4575 16.1793 54.0407 14.7249 55.2071 13.6449C56.388 12.5649 57.7776 12.0249 59.376 12.0249C60.9744 12.0249 62.3281 12.5073 63.4369 13.4721C64.5601 14.4369 65.1217 15.7617 65.1217 17.4465V19.1745H56.6544C56.7552 19.8081 57.0864 20.3265 57.648 20.7297C58.2096 21.1329 58.8432 21.3345 59.5488 21.3345C60.6864 21.3345 61.6224 20.9529 62.3569 20.1897L64.1713 22.1553ZM61.8384 16.8633C61.7664 16.1721 61.5072 15.6393 61.0608 15.2649C60.6144 14.8905 60.0672 14.7033 59.4192 14.7033C58.7856 14.7033 58.2024 14.8977 57.6696 15.2865C57.1368 15.6753 56.8272 16.2009 56.7408 16.8633H61.8384Z" fill="white"/>
<path d="M71.0408 24H67.8008V8H71.0408V24Z" fill="white"/>
<path d="M77.4373 24H74.1973V8H77.4373V24Z" fill="white"/>
<path d="M83.3124 18.0297C83.3124 18.9801 83.5788 19.7577 84.1116 20.3625C84.6588 20.9529 85.3501 21.2481 86.1853 21.2481C87.0349 21.2481 87.7261 20.9529 88.2589 20.3625C88.8061 19.7577 89.0797 18.9801 89.0797 18.0297C89.0797 17.0793 88.8061 16.3017 88.2589 15.6969C87.7261 15.0921 87.0349 14.7897 86.1853 14.7897C85.3501 14.7897 84.6588 15.0921 84.1116 15.6969C83.5788 16.3017 83.3124 17.0793 83.3124 18.0297ZM92.3414 18.0297C92.3414 19.7145 91.7582 21.1329 90.5917 22.2849C89.4253 23.4369 87.9565 24.0129 86.1853 24.0129C84.4285 24.0129 82.9668 23.4369 81.8004 22.2849C80.634 21.1329 80.0508 19.7145 80.0508 18.0297C80.0508 16.3449 80.634 14.9265 81.8004 13.7745C82.9668 12.6081 84.4285 12.0249 86.1853 12.0249C87.9565 12.0249 89.4253 12.6081 90.5917 13.7745C91.7582 14.9265 92.3414 16.3449 92.3414 18.0297Z" fill="white"/>
<path d="M101.725 12.3448C103.079 12.3448 104.281 12.9136 105.333 14.0512C106.398 15.1744 106.931 16.5928 106.931 18.3064C106.931 20.02 106.398 21.4528 105.333 22.6048C104.281 23.7568 103.043 24.3328 101.617 24.3328C100.206 24.3328 99.0684 23.764 98.2044 22.6264V28.0304H94.9644V12.5392H98.2044V13.8352C99.198 12.8416 100.372 12.3448 101.725 12.3448ZM98.1612 18.3712C98.1612 19.3072 98.4204 20.0776 98.9388 20.6824C99.4716 21.2728 100.112 21.568 100.861 21.568C101.61 21.568 102.265 21.2728 102.827 20.6824C103.388 20.0776 103.669 19.3072 103.669 18.3712C103.669 17.4352 103.396 16.6504 102.848 16.0168C102.301 15.3832 101.646 15.0664 100.883 15.0664C100.12 15.0664 99.4716 15.3832 98.9388 16.0168C98.4204 16.636 98.1612 17.4208 98.1612 18.3712Z" fill="white"/>
<path d="M115.679 15.2305C114.714 15.2305 113.994 15.5761 113.519 16.2673C113.044 16.9441 112.806 17.8441 112.806 18.9673V24.0001H109.566V12.3793H112.806V13.9129C113.224 13.4377 113.742 13.0345 114.362 12.7033C114.995 12.3721 115.636 12.1993 116.284 12.1849L116.306 15.2305H115.679Z" fill="white"/>
<path d="M121.086 18.0297C121.086 18.9801 121.352 19.7577 121.885 20.3625C122.432 20.9529 123.123 21.2481 123.959 21.2481C124.808 21.2481 125.5 20.9529 126.032 20.3625C126.58 19.7577 126.853 18.9801 126.853 18.0297C126.853 17.0793 126.58 16.3017 126.032 15.6969C125.5 15.0921 124.808 14.7897 123.959 14.7897C123.123 14.7897 122.432 15.0921 121.885 15.6969C121.352 16.3017 121.086 17.0793 121.086 18.0297ZM130.115 18.0297C130.115 19.7145 129.532 21.1329 128.365 22.2849C127.199 23.4369 125.73 24.0129 123.959 24.0129C122.202 24.0129 120.74 23.4369 119.574 22.2849C118.407 21.1329 117.824 19.7145 117.824 18.0297C117.824 16.3449 118.407 14.9265 119.574 13.7745C120.74 12.6081 122.202 12.0249 123.959 12.0249C125.73 12.0249 127.199 12.6081 128.365 13.7745C129.532 14.9265 130.115 16.3449 130.115 18.0297Z" fill="white"/>
<path d="M136.414 12.0608V12.8384H139.222V15.1712H136.414V24.0312H133.152V15.1712H131.792V12.8384H133.152V12.1256C133.152 10.8584 133.534 9.8576 134.297 9.1232C135.075 8.3744 136.032 8 137.17 8C138.322 8 139.366 8.432 140.302 9.296L139.136 11.4776C138.66 10.9304 138.135 10.6568 137.559 10.6568C137.228 10.6568 136.954 10.7792 136.738 11.024C136.522 11.2544 136.414 11.6 136.414 12.0608Z" fill="white"/>
<path d="M144.695 24.0312H141.455V12.8072H144.695V24.0312ZM141.714 11.2616C141.354 10.8872 141.174 10.4336 141.174 9.9008C141.174 9.368 141.354 8.9216 141.714 8.5616C142.088 8.1872 142.542 8 143.075 8C143.607 8 144.054 8.1872 144.414 8.5616C144.788 8.9216 144.975 9.368 144.975 9.9008C144.975 10.4336 144.788 10.8872 144.414 11.2616C144.054 11.6216 143.607 11.8016 143.075 11.8016C142.542 11.8016 142.088 11.6216 141.714 11.2616Z" fill="white"/>
<path d="M151.217 24H147.977V7.97278H151.217V24Z" fill="white"/>
<path d="M164.652 22.1425C163.342 23.3809 161.801 24.0001 160.029 24.0001C158.272 24.0001 156.818 23.4601 155.666 22.3801C154.514 21.2857 153.938 19.8241 153.938 17.9953C153.938 16.1665 154.521 14.7121 155.688 13.6321C156.868 12.5521 158.098 12.0121 159.696 12.0121C161.295 12.0121 162.809 12.4945 163.918 13.4593C165.041 14.4241 165.602 15.7489 165.602 17.4337V19.1617H157.135C157.236 19.7953 157.567 20.3137 158.128 20.7169C158.69 21.1201 159.324 21.3217 160.029 21.3217C161.167 21.3217 162.103 20.9401 162.837 20.1769L164.652 22.1425ZM162.319 16.8505C162.247 16.1593 161.988 15.6265 161.541 15.2521C161.095 14.8777 160.548 14.6905 159.9 14.6905C159.266 14.6905 158.683 14.8849 158.15 15.2737C157.617 15.6625 157.308 16.1881 157.221 16.8505H162.319Z" fill="white"/>
<path d="M7.44922 16.2384C8.29951 15.7476 9.38676 16.0389 9.87766 16.8891C10.5018 17.9701 11.3994 18.8679 12.4804 19.4919C13.5614 20.116 14.7877 20.4446 16.0359 20.4446C17.2842 20.4446 18.5105 20.116 19.5914 19.4919C20.6724 18.8679 21.57 17.9701 22.1942 16.8891C22.6851 16.0389 23.7723 15.7476 24.6226 16.2384C25.473 16.7295 25.7642 17.8167 25.2733 18.6669C24.3371 20.2883 22.9907 21.6349 21.3691 22.571C19.7476 23.5072 17.9082 24 16.0359 24C14.1636 24 12.3242 23.5072 10.7027 22.571C9.08121 21.6349 7.7347 20.2883 6.79853 18.6669C6.30762 17.8167 6.59894 16.7295 7.44922 16.2384Z" fill="white"/>
<path fill-rule="evenodd" clip-rule="evenodd" d="M16.0002 0C7.16355 0 0 7.16344 0 16C0 24.8365 7.16355 32 16.0002 32H30.4005C31.2842 32 32.0005 31.2837 32.0005 30.4V16C32.0005 7.16344 24.8369 0 16.0002 0ZM9.8777 16.8891C9.3868 16.0389 8.29955 15.7476 7.44926 16.2384C6.59898 16.7294 6.30766 17.8166 6.79857 18.6669C7.73474 20.2883 9.08126 21.6349 10.7028 22.571C12.3242 23.5072 14.1636 24 16.0359 24C17.9083 24 19.7477 23.5072 21.3691 22.571C22.9907 21.6349 24.3372 20.2883 25.2733 18.6669C25.7642 17.8166 25.473 16.7294 24.6226 16.2384C23.7724 15.7476 22.6851 16.0389 22.1943 16.8891C21.5701 17.9701 20.6725 18.8678 19.5915 19.4918C18.5105 20.116 17.2843 20.4446 16.0359 20.4446C14.7877 20.4446 13.5615 20.116 12.4805 19.4918C11.3995 18.8678 10.5018 17.9701 9.8777 16.8891Z" fill="#00C2FF"/>
</svg>
