<svg width="37" height="36" viewBox="0 0 37 36" fill="none" xmlns="http://www.w3.org/2000/svg">
<path d="M14.955 6.54547H8.32224C7.88247 6.54547 7.4607 6.71787 7.14973 7.02475C6.83876 7.33163 6.66406 7.74784 6.66406 8.18184V14.7273C6.66406 15.1613 6.83876 15.5775 7.14973 15.8844C7.4607 16.1913 7.88247 16.3637 8.32224 16.3637H14.955C15.3947 16.3637 15.8165 16.1913 16.1275 15.8844C16.4385 15.5775 16.6132 15.1613 16.6132 14.7273V8.18184C16.6132 7.74784 16.4385 7.33163 16.1275 7.02475C15.8165 6.71787 15.3947 6.54547 14.955 6.54547ZM13.2968 13.0909H9.98043V9.8182H13.2968V13.0909ZM21.5877 16.3637H28.2204C28.6602 16.3637 29.082 16.1913 29.3929 15.8844C29.7039 15.5775 29.8786 15.1613 29.8786 14.7273V8.18184C29.8786 7.74784 29.7039 7.33163 29.3929 7.02475C29.082 6.71787 28.6602 6.54547 28.2204 6.54547H21.5877C21.1479 6.54547 20.7262 6.71787 20.4152 7.02475C20.1042 7.33163 19.9295 7.74784 19.9295 8.18184V14.7273C19.9295 15.1613 20.1042 15.5775 20.4152 15.8844C20.7262 16.1913 21.1479 16.3637 21.5877 16.3637ZM23.2459 9.8182H26.5622V13.0909H23.2459V9.8182ZM14.955 19.6364H8.32224C7.88247 19.6364 7.4607 19.8088 7.14973 20.1157C6.83876 20.4225 6.66406 20.8388 6.66406 21.2727V27.8182C6.66406 28.2522 6.83876 28.6684 7.14973 28.9753C7.4607 29.2822 7.88247 29.4546 8.32224 29.4546H14.955C15.3947 29.4546 15.8165 29.2822 16.1275 28.9753C16.4385 28.6684 16.6132 28.2522 16.6132 27.8182V21.2727C16.6132 20.8388 16.4385 20.4225 16.1275 20.1157C15.8165 19.8088 15.3947 19.6364 14.955 19.6364ZM13.2968 26.1818H9.98043V22.9091H13.2968V26.1818ZM21.5877 24.5455C22.0275 24.5455 22.4492 24.3731 22.7602 24.0662C23.0712 23.7593 23.2459 23.3431 23.2459 22.9091C23.6857 22.9091 24.1074 22.7367 24.4184 22.4298C24.7294 22.123 24.9041 21.7067 24.9041 21.2727C24.9041 20.8388 24.7294 20.4225 24.4184 20.1157C24.1074 19.8088 23.6857 19.6364 23.2459 19.6364H21.5877C21.1479 19.6364 20.7262 19.8088 20.4152 20.1157C20.1042 20.4225 19.9295 20.8388 19.9295 21.2727V22.9091C19.9295 23.3431 20.1042 23.7593 20.4152 24.0662C20.7262 24.3731 21.1479 24.5455 21.5877 24.5455ZM28.2204 19.6364C27.7806 19.6364 27.3589 19.8088 27.0479 20.1157C26.7369 20.4225 26.5622 20.8388 26.5622 21.2727V26.1818C26.1225 26.1818 25.7007 26.3542 25.3897 26.6611C25.0788 26.968 24.9041 27.3842 24.9041 27.8182C24.9041 28.2522 25.0788 28.6684 25.3897 28.9753C25.7007 29.2822 26.1225 29.4546 26.5622 29.4546H28.2204C28.6602 29.4546 29.082 29.2822 29.3929 28.9753C29.7039 28.6684 29.8786 28.2522 29.8786 27.8182V21.2727C29.8786 20.8388 29.7039 20.4225 29.3929 20.1157C29.082 19.8088 28.6602 19.6364 28.2204 19.6364ZM21.5877 26.1818C21.2597 26.1818 20.9391 26.2778 20.6665 26.4576C20.3938 26.6374 20.1812 26.893 20.0557 27.192C19.9302 27.491 19.8974 27.82 19.9614 28.1374C20.0254 28.4549 20.1833 28.7464 20.4152 28.9753C20.6471 29.2041 20.9425 29.36 21.2642 29.4231C21.5859 29.4863 21.9193 29.4539 22.2223 29.33C22.5253 29.2062 22.7842 28.9964 22.9664 28.7273C23.1486 28.4582 23.2459 28.1418 23.2459 27.8182C23.2459 27.3842 23.0712 26.968 22.7602 26.6611C22.4492 26.3542 22.0275 26.1818 21.5877 26.1818Z" fill="white"/>
<path d="M11.7005 32.7273H5.06781C4.62803 32.7273 4.20626 32.5549 3.8953 32.248C3.58433 31.9411 3.40963 31.5249 3.40963 31.0909V24.5455C3.40963 24.1115 3.23492 23.6953 2.92395 23.3884C2.61299 23.0815 2.19122 22.9091 1.75144 22.9091C1.31167 22.9091 0.889901 23.0815 0.578932 23.3884C0.267962 23.6953 0.0932617 24.1115 0.0932617 24.5455V31.0909C0.0932617 32.3929 0.617364 33.6415 1.55027 34.5622C2.48318 35.4828 3.74848 36 5.06781 36H11.7005C12.1403 36 12.5621 35.8276 12.873 35.5207C13.184 35.2138 13.3587 34.7976 13.3587 34.3636C13.3587 33.9296 13.184 33.5134 12.873 33.2066C12.5621 32.8997 12.1403 32.7273 11.7005 32.7273ZM34.9151 22.9091C34.4753 22.9091 34.0535 23.0815 33.7426 23.3884C33.4316 23.6953 33.2569 24.1115 33.2569 24.5455V31.0909C33.2569 31.5249 33.0822 31.9411 32.7712 32.248C32.4603 32.5549 32.0385 32.7273 31.5987 32.7273H24.966C24.5262 32.7273 24.1044 32.8997 23.7935 33.2066C23.4825 33.5134 23.3078 33.9296 23.3078 34.3636C23.3078 34.7976 23.4825 35.2138 23.7935 35.5207C24.1044 35.8276 24.5262 36 24.966 36H31.5987C32.918 36 34.1833 35.4828 35.1162 34.5622C36.0492 33.6415 36.5733 32.3929 36.5733 31.0909V24.5455C36.5733 24.1115 36.3986 23.6953 36.0876 23.3884C35.7766 23.0815 35.3549 22.9091 34.9151 22.9091ZM31.5987 0H24.966C24.5262 0 24.1044 0.172402 23.7935 0.47928C23.4825 0.786157 23.3078 1.20237 23.3078 1.63636C23.3078 2.07035 23.4825 2.48657 23.7935 2.79345C24.1044 3.10033 24.5262 3.27273 24.966 3.27273H31.5987C32.0385 3.27273 32.4603 3.44513 32.7712 3.75201C33.0822 4.05889 33.2569 4.4751 33.2569 4.90909V11.4545C33.2569 11.8885 33.4316 12.3048 33.7426 12.6116C34.0535 12.9185 34.4753 13.0909 34.9151 13.0909C35.3549 13.0909 35.7766 12.9185 36.0876 12.6116C36.3986 12.3048 36.5733 11.8885 36.5733 11.4545V4.90909C36.5733 3.60712 36.0492 2.35847 35.1162 1.43784C34.1833 0.517206 32.918 0 31.5987 0ZM1.75144 13.0909C2.19122 13.0909 2.61299 12.9185 2.92395 12.6116C3.23492 12.3048 3.40963 11.8885 3.40963 11.4545V4.90909C3.40963 4.4751 3.58433 4.05889 3.8953 3.75201C4.20626 3.44513 4.62803 3.27273 5.06781 3.27273H11.7005C12.1403 3.27273 12.5621 3.10033 12.873 2.79345C13.184 2.48657 13.3587 2.07035 13.3587 1.63636C13.3587 1.20237 13.184 0.786157 12.873 0.47928C12.5621 0.172402 12.1403 0 11.7005 0H5.06781C3.74848 0 2.48318 0.517206 1.55027 1.43784C0.617364 2.35847 0.0932617 3.60712 0.0932617 4.90909V11.4545C0.0932617 11.8885 0.267962 12.3048 0.578932 12.6116C0.889901 12.9185 1.31167 13.0909 1.75144 13.0909Z" fill="white"/>
</svg>
