<svg width="35" height="35" viewBox="0 0 35 35" fill="none" xmlns="http://www.w3.org/2000/svg">
<path d="M15.2367 21.3656C15.0026 21.366 14.7707 21.3202 14.5544 21.2306C14.3381 21.1411 14.1416 21.0097 13.9763 20.8439C12.4118 19.2751 11.5332 17.1498 11.5332 14.9342C11.5332 12.7186 12.4118 10.5934 13.9763 9.02454L20.5523 2.44848C22.1306 0.870231 24.2306 0 26.462 0C28.6935 0 30.7935 0.870231 32.3717 2.44848C33.9362 4.01733 34.8148 6.14255 34.8148 8.35817C34.8148 10.5738 33.9362 12.699 32.3717 14.2679L29.3665 17.2731C29.0285 17.5874 28.5819 17.7583 28.1205 17.7499C27.6591 17.7416 27.219 17.5546 26.8927 17.2283C26.5664 16.902 26.3794 16.4618 26.371 16.0004C26.3626 15.539 26.5336 15.0924 26.8478 14.7545L29.8531 11.7492C30.5216 11.0777 30.9764 10.2233 31.1602 9.29372C31.344 8.36415 31.2486 7.40099 30.886 6.52555C30.5234 5.65011 29.9098 4.90156 29.1225 4.37419C28.3353 3.84683 27.4096 3.56424 26.462 3.56203C25.1819 3.56203 23.9763 4.06181 23.071 4.96711L16.4949 11.5432C15.5967 12.4432 15.0923 13.6627 15.0923 14.9342C15.0923 16.2057 15.5967 17.4253 16.4949 18.3253C16.7435 18.5746 16.9127 18.892 16.981 19.2374C17.0494 19.5828 17.0139 19.9407 16.8791 20.266C16.7443 20.5912 16.5161 20.8693 16.2234 21.065C15.9307 21.2607 15.5866 21.3653 15.2345 21.3656H15.2367Z" fill="white"/>
<path d="M8.92601 34.2526C7.82802 34.2554 6.74037 34.0404 5.72599 33.6201C4.71161 33.1999 3.79063 32.5826 3.01633 31.8041C1.45181 30.2353 0.573242 28.1101 0.573242 25.8944C0.573242 23.6788 1.45181 21.5536 3.01633 19.9848L6.02159 16.9795C6.3595 16.6652 6.80615 16.4943 7.26753 16.5027C7.72891 16.511 8.16907 16.698 8.49537 17.0243C8.82167 17.3506 9.00868 17.7908 9.01704 18.2522C9.02541 18.7136 8.85448 19.1602 8.54022 19.4981L5.53496 22.5034C4.86647 23.1749 4.41168 24.0293 4.22788 24.9589C4.04408 25.8884 4.13948 26.8516 4.50208 27.7271C4.86468 28.6025 5.47825 29.351 6.2655 29.8784C7.05275 30.4058 7.97846 30.6884 8.92601 30.6906C10.2083 30.6906 11.4118 30.1908 12.3171 29.2855L18.8931 22.7094C19.7913 21.8094 20.2957 20.5899 20.2957 19.3184C20.2957 18.0469 19.7913 16.8273 18.8931 15.9273C18.5789 15.5894 18.4079 15.1428 18.4163 14.6814C18.4247 14.22 18.6117 13.7799 18.938 13.4535C19.2643 13.1272 19.7044 12.9402 20.1658 12.9319C20.6272 12.9235 21.0738 13.0944 21.4118 13.4087C22.9763 14.9775 23.8548 17.1028 23.8548 19.3184C23.8548 21.534 22.9763 23.6592 21.4118 25.2281L14.8357 31.8041C14.0614 32.5826 13.1404 33.1999 12.126 33.6201C11.1117 34.0404 10.024 34.2554 8.92601 34.2526Z" fill="white"/>
</svg>
