<svg width="32" height="32" viewBox="0 0 32 32" fill="none" xmlns="http://www.w3.org/2000/svg">
<path fill-rule="evenodd" clip-rule="evenodd" d="M16 32C24.8366 32 32 24.8366 32 16C32 7.16344 24.8366 0 16 0C7.16344 0 0 7.16344 0 16C0 24.8366 7.16344 32 16 32ZM15.0885 20.784L22.6885 13.184C23.2325 12.64 23.2325 11.76 22.6885 11.2C22.1445 10.656 21.2485 10.656 20.7045 11.2L14.0965 17.808L11.2965 15.008C10.7525 14.464 9.85651 14.464 9.31251 15.008C8.76851 15.552 8.76851 16.432 9.31251 16.992L13.1205 20.784C13.3925 21.056 13.7445 21.184 14.0965 21.184C14.4645 21.184 14.8165 21.056 15.0885 20.784Z" fill="#219653"/>
</svg>
