<svg width="426" height="121" viewBox="0 0 426 121" fill="none" xmlns="http://www.w3.org/2000/svg">
<rect x="13" y="55" width="17" height="32" rx="2" stroke="white" stroke-width="2" stroke-linecap="round" stroke-linejoin="round"/>
<circle cx="22" cy="84" r="1" fill="white"/>
<rect x="119" y="39" width="48" height="37" rx="2" transform="rotate(90 119 39)" stroke="white" stroke-width="2" stroke-linecap="round" stroke-linejoin="round"/>
<path d="M101 84H102" stroke="white" stroke-width="2" stroke-linecap="round" stroke-linejoin="round"/>
<rect x="175" y="34" width="74" height="48" rx="2" stroke="white" stroke-width="2" stroke-linecap="round" stroke-linejoin="round"/>
<path d="M169 87H255" stroke="white" stroke-width="2" stroke-linecap="round" stroke-linejoin="round"/>
<rect x="308" y="1" width="117" height="76" rx="2" stroke="white" stroke-width="2" stroke-linecap="round" stroke-linejoin="round"/>
<path d="M354 87H380" stroke="white" stroke-width="2" stroke-linecap="round" stroke-linejoin="round"/>
<path d="M2.58 118H1.164V109.612H3.372L5.904 114.88L8.436 109.612H10.632V118H9.216V111.448L6.288 117.268H5.496L2.58 111.448V118ZM14.2608 116.32C14.6448 116.704 15.1288 116.896 15.7128 116.896C16.2968 116.896 16.7768 116.704 17.1528 116.32C17.5368 115.928 17.7288 115.424 17.7288 114.808C17.7288 114.192 17.5368 113.692 17.1528 113.308C16.7768 112.916 16.2968 112.72 15.7128 112.72C15.1288 112.72 14.6448 112.916 14.2608 113.308C13.8848 113.692 13.6968 114.192 13.6968 114.808C13.6968 115.424 13.8848 115.928 14.2608 116.32ZM18.1128 117.148C17.4728 117.78 16.6728 118.096 15.7128 118.096C14.7528 118.096 13.9528 117.78 13.3128 117.148C12.6728 116.508 12.3528 115.728 12.3528 114.808C12.3528 113.888 12.6728 113.112 13.3128 112.48C13.9528 111.84 14.7528 111.52 15.7128 111.52C16.6728 111.52 17.4728 111.84 18.1128 112.48C18.7528 113.112 19.0728 113.888 19.0728 114.808C19.0728 115.728 18.7528 116.508 18.1128 117.148ZM24.0209 111.52C24.8769 111.52 25.6089 111.816 26.2169 112.408C26.8249 113 27.1289 113.788 27.1289 114.772C27.1289 115.756 26.8249 116.556 26.2169 117.172C25.6169 117.788 24.9129 118.096 24.1049 118.096C23.3049 118.096 22.5849 117.744 21.9449 117.04V118H20.6009V109.096H21.9449V112.732C22.4729 111.924 23.1649 111.52 24.0209 111.52ZM21.9209 114.82C21.9209 115.428 22.1049 115.928 22.4729 116.32C22.8409 116.704 23.2889 116.896 23.8169 116.896C24.3449 116.896 24.8049 116.704 25.1969 116.32C25.5889 115.936 25.7849 115.44 25.7849 114.832C25.7849 114.216 25.5929 113.708 25.2089 113.308C24.8249 112.9 24.3649 112.696 23.8289 112.696C23.2929 112.696 22.8409 112.9 22.4729 113.308C22.1049 113.708 21.9209 114.212 21.9209 114.82ZM30.0074 118H28.6634V111.616H30.0074V118ZM28.7474 110.344C28.5794 110.176 28.4954 109.976 28.4954 109.744C28.4954 109.512 28.5794 109.312 28.7474 109.144C28.9154 108.976 29.1154 108.892 29.3474 108.892C29.5794 108.892 29.7794 108.976 29.9474 109.144C30.1154 109.312 30.1994 109.512 30.1994 109.744C30.1994 109.976 30.1154 110.176 29.9474 110.344C29.7794 110.512 29.5794 110.596 29.3474 110.596C29.1154 110.596 28.9154 110.512 28.7474 110.344ZM33.3004 118H31.9564V109.096H33.3004V118ZM41.1893 115.396H36.1853C36.2173 115.86 36.4293 116.236 36.8213 116.524C37.2133 116.804 37.6613 116.944 38.1653 116.944C38.9653 116.944 39.5733 116.692 39.9893 116.188L40.7573 117.028C40.0693 117.74 39.1733 118.096 38.0693 118.096C37.1733 118.096 36.4093 117.8 35.7773 117.208C35.1533 116.608 34.8413 115.808 34.8413 114.808C34.8413 113.8 35.1613 113 35.8013 112.408C36.4413 111.816 37.1933 111.52 38.0573 111.52C38.9293 111.52 39.6693 111.784 40.2773 112.312C40.8853 112.832 41.1893 113.552 41.1893 114.472V115.396ZM36.1853 114.34H39.8453C39.8453 113.804 39.6773 113.392 39.3413 113.104C39.0053 112.816 38.5893 112.672 38.0933 112.672C37.6053 112.672 37.1653 112.824 36.7733 113.128C36.3813 113.424 36.1853 113.828 36.1853 114.34Z" fill="white"/>
<path d="M87.332 110.908V118H85.916V110.908H83.372V109.612H89.876V110.908H87.332ZM95.5073 118H94.2833V117.148C93.7553 117.78 93.0473 118.096 92.1593 118.096C91.4953 118.096 90.9433 117.908 90.5033 117.532C90.0713 117.156 89.8553 116.656 89.8553 116.032C89.8553 115.4 90.0873 114.928 90.5513 114.616C91.0153 114.304 91.6433 114.148 92.4353 114.148H94.1753V113.908C94.1753 113.06 93.7033 112.636 92.7593 112.636C92.1673 112.636 91.5513 112.852 90.9113 113.284L90.3113 112.444C91.0873 111.828 91.9673 111.52 92.9513 111.52C93.7033 111.52 94.3153 111.712 94.7873 112.096C95.2673 112.472 95.5073 113.068 95.5073 113.884V118ZM94.1633 115.624V115.084H92.6513C91.6833 115.084 91.1993 115.388 91.1993 115.996C91.1993 116.308 91.3193 116.548 91.5593 116.716C91.7993 116.876 92.1313 116.956 92.5553 116.956C92.9873 116.956 93.3633 116.836 93.6833 116.596C94.0033 116.356 94.1633 116.032 94.1633 115.624ZM100.798 111.52C101.654 111.52 102.386 111.816 102.994 112.408C103.602 113 103.906 113.788 103.906 114.772C103.906 115.756 103.602 116.556 102.994 117.172C102.394 117.788 101.69 118.096 100.882 118.096C100.082 118.096 99.3623 117.744 98.7223 117.04V118H97.3783V109.096H98.7223V112.732C99.2503 111.924 99.9423 111.52 100.798 111.52ZM98.6983 114.82C98.6983 115.428 98.8823 115.928 99.2503 116.32C99.6183 116.704 100.066 116.896 100.594 116.896C101.122 116.896 101.582 116.704 101.974 116.32C102.366 115.936 102.562 115.44 102.562 114.832C102.562 114.216 102.37 113.708 101.986 113.308C101.602 112.9 101.142 112.696 100.606 112.696C100.07 112.696 99.6183 112.9 99.2503 113.308C98.8823 113.708 98.6983 114.212 98.6983 114.82ZM106.785 118H105.441V109.096H106.785V118ZM114.674 115.396H109.67C109.702 115.86 109.914 116.236 110.306 116.524C110.698 116.804 111.146 116.944 111.65 116.944C112.45 116.944 113.058 116.692 113.474 116.188L114.242 117.028C113.554 117.74 112.658 118.096 111.554 118.096C110.658 118.096 109.894 117.8 109.262 117.208C108.638 116.608 108.326 115.808 108.326 114.808C108.326 113.8 108.646 113 109.286 112.408C109.926 111.816 110.678 111.52 111.542 111.52C112.414 111.52 113.154 111.784 113.762 112.312C114.37 112.832 114.674 113.552 114.674 114.472V115.396ZM109.67 114.34H113.33C113.33 113.804 113.162 113.392 112.826 113.104C112.49 112.816 112.074 112.672 111.578 112.672C111.09 112.672 110.65 112.824 110.258 113.128C109.866 113.424 109.67 113.828 109.67 114.34ZM117.761 112.696V115.936C117.761 116.24 117.841 116.484 118.001 116.668C118.161 116.844 118.385 116.932 118.673 116.932C118.961 116.932 119.237 116.792 119.501 116.512L120.053 117.46C119.581 117.884 119.057 118.096 118.481 118.096C117.913 118.096 117.425 117.9 117.017 117.508C116.617 117.108 116.417 116.572 116.417 115.9V112.696H115.613V111.616H116.417V109.612H117.761V111.616H119.441V112.696H117.761Z" fill="white"/>
<path d="M191.164 118V109.612H192.58V116.656H196.408V118H191.164ZM202.941 118H201.717V117.148C201.189 117.78 200.481 118.096 199.593 118.096C198.929 118.096 198.377 117.908 197.937 117.532C197.505 117.156 197.289 116.656 197.289 116.032C197.289 115.4 197.521 114.928 197.985 114.616C198.449 114.304 199.077 114.148 199.869 114.148H201.609V113.908C201.609 113.06 201.137 112.636 200.193 112.636C199.601 112.636 198.985 112.852 198.345 113.284L197.745 112.444C198.521 111.828 199.401 111.52 200.385 111.52C201.137 111.52 201.749 111.712 202.221 112.096C202.701 112.472 202.941 113.068 202.941 113.884V118ZM201.597 115.624V115.084H200.085C199.117 115.084 198.633 115.388 198.633 115.996C198.633 116.308 198.753 116.548 198.993 116.716C199.233 116.876 199.565 116.956 199.989 116.956C200.421 116.956 200.797 116.836 201.117 116.596C201.437 116.356 201.597 116.032 201.597 115.624ZM208.232 111.52C209.088 111.52 209.82 111.816 210.428 112.408C211.036 113 211.34 113.788 211.34 114.772C211.34 115.756 211.036 116.556 210.428 117.172C209.828 117.788 209.124 118.096 208.316 118.096C207.516 118.096 206.796 117.744 206.156 117.04V120.328H204.812V111.616H206.156V112.732C206.684 111.924 207.376 111.52 208.232 111.52ZM206.132 114.82C206.132 115.428 206.316 115.928 206.684 116.32C207.052 116.704 207.5 116.896 208.028 116.896C208.556 116.896 209.016 116.704 209.408 116.32C209.8 115.936 209.996 115.44 209.996 114.832C209.996 114.216 209.804 113.708 209.42 113.308C209.036 112.9 208.576 112.696 208.04 112.696C207.504 112.696 207.052 112.9 206.684 113.308C206.316 113.708 206.132 114.212 206.132 114.82ZM214.53 112.696V115.936C214.53 116.24 214.61 116.484 214.77 116.668C214.93 116.844 215.154 116.932 215.442 116.932C215.73 116.932 216.006 116.792 216.27 116.512L216.822 117.46C216.35 117.884 215.826 118.096 215.25 118.096C214.682 118.096 214.194 117.9 213.786 117.508C213.386 117.108 213.186 116.572 213.186 115.9V112.696H212.382V111.616H213.186V109.612H214.53V111.616H216.21V112.696H214.53ZM219.331 116.32C219.715 116.704 220.199 116.896 220.783 116.896C221.367 116.896 221.847 116.704 222.223 116.32C222.607 115.928 222.799 115.424 222.799 114.808C222.799 114.192 222.607 113.692 222.223 113.308C221.847 112.916 221.367 112.72 220.783 112.72C220.199 112.72 219.715 112.916 219.331 113.308C218.955 113.692 218.767 114.192 218.767 114.808C218.767 115.424 218.955 115.928 219.331 116.32ZM223.183 117.148C222.543 117.78 221.743 118.096 220.783 118.096C219.823 118.096 219.023 117.78 218.383 117.148C217.743 116.508 217.423 115.728 217.423 114.808C217.423 113.888 217.743 113.112 218.383 112.48C219.023 111.84 219.823 111.52 220.783 111.52C221.743 111.52 222.543 111.84 223.183 112.48C223.823 113.112 224.143 113.888 224.143 114.808C224.143 115.728 223.823 116.508 223.183 117.148ZM229.091 111.52C229.947 111.52 230.679 111.816 231.287 112.408C231.895 113 232.199 113.788 232.199 114.772C232.199 115.756 231.895 116.556 231.287 117.172C230.687 117.788 229.983 118.096 229.175 118.096C228.375 118.096 227.655 117.744 227.015 117.04V120.328H225.671V111.616H227.015V112.732C227.543 111.924 228.235 111.52 229.091 111.52ZM226.991 114.82C226.991 115.428 227.175 115.928 227.543 116.32C227.911 116.704 228.359 116.896 228.887 116.896C229.415 116.896 229.875 116.704 230.267 116.32C230.659 115.936 230.855 115.44 230.855 114.832C230.855 114.216 230.663 113.708 230.279 113.308C229.895 112.9 229.435 112.696 228.899 112.696C228.363 112.696 227.911 112.9 227.543 113.308C227.175 113.708 226.991 114.212 226.991 114.82Z" fill="white"/>
<path d="M345.044 109.612C346.548 109.612 347.704 109.98 348.512 110.716C349.32 111.444 349.724 112.46 349.724 113.764C349.724 115.068 349.332 116.1 348.548 116.86C347.764 117.62 346.564 118 344.948 118H342.164V109.612H345.044ZM348.296 113.8C348.296 111.88 347.196 110.92 344.996 110.92H343.58V116.668H345.152C346.168 116.668 346.944 116.428 347.48 115.948C348.024 115.46 348.296 114.744 348.296 113.8ZM357.299 115.396H352.295C352.327 115.86 352.539 116.236 352.931 116.524C353.323 116.804 353.771 116.944 354.275 116.944C355.075 116.944 355.683 116.692 356.099 116.188L356.867 117.028C356.179 117.74 355.283 118.096 354.179 118.096C353.283 118.096 352.519 117.8 351.887 117.208C351.263 116.608 350.951 115.808 350.951 114.808C350.951 113.8 351.271 113 351.911 112.408C352.551 111.816 353.303 111.52 354.167 111.52C355.039 111.52 355.779 111.784 356.387 112.312C356.995 112.832 357.299 113.552 357.299 114.472V115.396ZM352.295 114.34H355.955C355.955 113.804 355.787 113.392 355.451 113.104C355.115 112.816 354.699 112.672 354.203 112.672C353.715 112.672 353.275 112.824 352.883 113.128C352.491 113.424 352.295 113.828 352.295 114.34ZM363.325 116.092C363.325 116.7 363.105 117.188 362.665 117.556C362.225 117.916 361.661 118.096 360.973 118.096C360.509 118.096 360.025 118.012 359.521 117.844C359.025 117.676 358.585 117.44 358.201 117.136L358.849 116.092C359.593 116.652 360.313 116.932 361.009 116.932C361.313 116.932 361.553 116.864 361.729 116.728C361.905 116.584 361.993 116.404 361.993 116.188C361.993 115.868 361.569 115.58 360.721 115.324C360.657 115.3 360.609 115.284 360.577 115.276C359.249 114.916 358.585 114.316 358.585 113.476C358.585 112.884 358.813 112.412 359.269 112.06C359.733 111.7 360.333 111.52 361.069 111.52C361.805 111.52 362.501 111.736 363.157 112.168L362.653 113.164C362.133 112.82 361.569 112.648 360.961 112.648C360.641 112.648 360.381 112.708 360.181 112.828C359.981 112.94 359.881 113.112 359.881 113.344C359.881 113.552 359.985 113.704 360.193 113.8C360.337 113.872 360.537 113.94 360.793 114.004C361.057 114.068 361.289 114.132 361.489 114.196C361.689 114.26 361.881 114.332 362.065 114.412C362.257 114.492 362.461 114.604 362.677 114.748C363.109 115.036 363.325 115.484 363.325 116.092ZM366.191 118H364.847V109.096H366.191V114.328L368.783 111.616H370.511L368.087 114.148L370.691 118H369.059L367.163 115.204L366.191 116.188V118ZM373.476 112.696V115.936C373.476 116.24 373.556 116.484 373.716 116.668C373.876 116.844 374.1 116.932 374.388 116.932C374.676 116.932 374.952 116.792 375.216 116.512L375.768 117.46C375.296 117.884 374.772 118.096 374.196 118.096C373.628 118.096 373.14 117.9 372.732 117.508C372.332 117.108 372.132 116.572 372.132 115.9V112.696H371.328V111.616H372.132V109.612H373.476V111.616H375.156V112.696H373.476ZM378.276 116.32C378.66 116.704 379.144 116.896 379.728 116.896C380.312 116.896 380.792 116.704 381.168 116.32C381.552 115.928 381.744 115.424 381.744 114.808C381.744 114.192 381.552 113.692 381.168 113.308C380.792 112.916 380.312 112.72 379.728 112.72C379.144 112.72 378.66 112.916 378.276 113.308C377.9 113.692 377.712 114.192 377.712 114.808C377.712 115.424 377.9 115.928 378.276 116.32ZM382.128 117.148C381.488 117.78 380.688 118.096 379.728 118.096C378.768 118.096 377.968 117.78 377.328 117.148C376.688 116.508 376.368 115.728 376.368 114.808C376.368 113.888 376.688 113.112 377.328 112.48C377.968 111.84 378.768 111.52 379.728 111.52C380.688 111.52 381.488 111.84 382.128 112.48C382.768 113.112 383.088 113.888 383.088 114.808C383.088 115.728 382.768 116.508 382.128 117.148ZM388.037 111.52C388.893 111.52 389.625 111.816 390.233 112.408C390.841 113 391.145 113.788 391.145 114.772C391.145 115.756 390.841 116.556 390.233 117.172C389.633 117.788 388.929 118.096 388.121 118.096C387.321 118.096 386.601 117.744 385.961 117.04V120.328H384.617V111.616H385.961V112.732C386.489 111.924 387.181 111.52 388.037 111.52ZM385.937 114.82C385.937 115.428 386.121 115.928 386.489 116.32C386.857 116.704 387.305 116.896 387.833 116.896C388.361 116.896 388.821 116.704 389.213 116.32C389.605 115.936 389.801 115.44 389.801 114.832C389.801 114.216 389.609 113.708 389.225 113.308C388.841 112.9 388.381 112.696 387.845 112.696C387.309 112.696 386.857 112.9 386.489 113.308C386.121 113.708 385.937 114.212 385.937 114.82Z" fill="white"/>
</svg>
