<svg width="72" height="72" viewBox="0 0 72 72" fill="none" xmlns="http://www.w3.org/2000/svg">
<rect x="0.411621" y="0.80957" width="70.8264" height="70.8264" rx="11.3322" fill="#555555" fill-opacity="0.1"/>
<path d="M50.6677 27.5733C49.6524 28.0284 48.5614 28.3359 47.4164 28.4743C48.5853 27.7662 49.4827 26.6449 49.9053 25.3088C48.7942 25.9753 47.5785 26.4449 46.3108 26.6973C45.2782 25.5853 43.8071 24.8904 42.1789 24.8904C39.0526 24.8904 36.518 27.4522 36.518 30.6119C36.518 31.0604 36.5681 31.497 36.6645 31.9159C31.96 31.6772 27.7889 29.3994 24.9969 25.9377C24.5097 26.7828 24.2306 27.7657 24.2306 28.8142C24.2306 30.7993 25.23 32.5505 26.7489 33.5766C25.8499 33.5481 24.9708 33.3027 24.1848 32.8608C24.1845 32.8848 24.1845 32.9088 24.1845 32.9328C24.1845 35.705 26.1357 38.0176 28.7252 38.5432C27.8916 38.7724 27.0173 38.8059 26.1689 38.6413C26.8892 40.9144 28.9798 42.5685 31.4568 42.6148C29.5194 44.1494 27.0786 45.0641 24.4265 45.0641C23.9696 45.0641 23.519 45.037 23.0762 44.9842C25.5813 46.6076 28.5567 47.5548 31.7535 47.5548C42.1657 47.5548 47.8594 38.8363 47.8594 31.2754C47.8594 31.0273 47.854 30.7805 47.843 30.5352C48.9512 29.7254 49.9077 28.7225 50.6677 27.5733Z" fill="black"/>
</svg>
