<svg width="45" height="45" viewBox="0 0 45 45" fill="none" xmlns="http://www.w3.org/2000/svg">
<rect x="0.328125" width="44.5312" height="44.5312" rx="6.67969" fill="#00C2FF"/>
<g clip-path="url(#clip0_1389_2803)">
<path d="M34.8398 12.2461C33.7737 12.9981 32.5934 13.5732 31.3441 13.9494C30.6737 13.1784 29.7826 12.632 28.7914 12.384C27.8003 12.136 26.7569 12.1984 25.8023 12.5627C24.8478 12.9271 24.0281 13.5758 23.4543 14.4211C22.8804 15.2664 22.5801 16.2676 22.5938 17.2892V18.4025C20.6373 18.4532 18.6987 18.0193 16.9505 17.1394C15.2024 16.2595 13.699 14.9609 12.5742 13.3593C12.5742 13.3593 8.12109 23.3789 18.1406 27.832C15.8479 29.3883 13.1166 30.1687 10.3477 30.0586C20.3672 35.625 32.6133 30.0586 32.6133 17.2558C32.6123 16.9457 32.5824 16.6364 32.5242 16.3318C33.6604 15.2113 34.4622 13.7965 34.8398 12.2461Z" stroke="white" stroke-width="1.5" stroke-linecap="round" stroke-linejoin="round"/>
</g>
<defs>
<clipPath id="clip0_1389_2803">
<rect width="26.7187" height="26.7187" fill="white" transform="translate(9.23438 8.90625)"/>
</clipPath>
</defs>
</svg>
