<svg width="72" height="71" viewBox="0 0 72 71" fill="none" xmlns="http://www.w3.org/2000/svg">
<rect x="0.535156" y="0.0596924" width="70.8264" height="70.8264" rx="11.3322" fill="#555555" fill-opacity="0.1"/>
<path d="M44.1586 37.456C43.7336 37.456 43.4053 37.0844 43.449 36.6617C43.5377 35.803 43.5973 34.9396 43.5973 34.0563C43.5973 33.173 43.5377 32.3096 43.449 31.4509C43.4053 31.0282 43.7336 30.6566 44.1586 30.6566H48.5517C48.8767 30.6566 49.1617 30.8775 49.2299 31.1953C49.4278 32.1185 49.5467 33.0755 49.5467 34.0563C49.5467 35.0371 49.4278 35.9941 49.2299 36.9174C49.1617 37.2351 48.8767 37.456 48.5517 37.456H44.1586ZM42.0236 46.2035C41.4466 46.4927 40.8902 45.8677 41.1551 45.2792C41.7177 44.03 42.1843 42.7267 42.5549 41.3869C42.6412 41.0751 42.9226 40.8556 43.2462 40.8556H46.4805C47.0265 40.8556 47.3615 41.4448 47.0459 41.8904C45.7496 43.7206 44.0234 45.2012 42.0236 46.2035ZM40.0053 36.8429C39.9622 37.1944 39.6616 37.456 39.3074 37.456H32.5795C32.2293 37.456 31.9305 37.2002 31.8858 36.8529C31.7672 35.931 31.6985 35.0051 31.6985 34.0563C31.6985 33.1091 31.7669 32.1733 31.8852 31.2582C31.93 30.9116 32.2285 30.6566 32.5781 30.6566H39.3087C39.6623 30.6566 39.9627 30.9174 40.0059 31.2683C40.1183 32.1802 40.1976 33.1126 40.1976 34.0563C40.1976 35.0017 40.118 35.9244 40.0053 36.8429ZM36.5139 46.7336C36.2485 47.1516 35.6475 47.1516 35.3822 46.7336C34.3979 45.1832 33.5747 43.5161 32.981 41.7529C32.8307 41.3067 33.1704 40.8556 33.6412 40.8556H38.2548C38.7257 40.8556 39.0653 41.3067 38.9151 41.7529C38.3214 43.5161 37.4981 45.1832 36.5139 46.7336ZM29.2972 26.7407C29.2072 27.0453 28.9291 27.257 28.6115 27.257H25.4075C24.8633 27.257 24.528 26.6712 24.8403 26.2255C26.1294 24.3859 27.8569 22.9002 29.8619 21.9009C30.4384 21.6136 30.9934 22.2384 30.7294 22.826C30.1651 24.0822 29.6951 25.393 29.2972 26.7407ZM24.8472 41.8895C24.5326 41.4438 24.8677 40.8556 25.4132 40.8556H28.6115C28.9291 40.8556 29.2072 41.0673 29.2972 41.3719C29.694 42.7161 30.1627 44.0236 30.725 45.2769C30.9893 45.8658 30.4314 46.4913 29.8546 46.2014C27.8595 45.1987 26.1384 43.7185 24.8472 41.8895ZM23.3443 37.456C23.0193 37.456 22.7343 37.2351 22.6662 36.9174C22.4682 35.9941 22.3494 35.0371 22.3494 34.0563C22.3494 33.0755 22.4682 32.1185 22.6662 31.1953C22.7343 30.8775 23.0193 30.6566 23.3443 30.6566H27.7375C28.1624 30.6566 28.4908 31.0282 28.4471 31.4509C28.3583 32.3096 28.2988 33.173 28.2988 34.0563C28.2988 34.9396 28.3583 35.803 28.4471 36.6617C28.4908 37.0844 28.1624 37.456 27.7375 37.456H23.3443ZM35.3826 21.3623C35.6476 20.9441 36.2485 20.9441 36.5135 21.3623C37.498 22.916 38.3215 24.5932 38.9153 26.3597C39.0653 26.806 38.7257 27.257 38.2548 27.257H33.6412C33.1704 27.257 32.8307 26.806 32.9808 26.3597C33.5746 24.5932 34.398 22.916 35.3826 21.3623ZM47.0491 26.2233C47.3636 26.6689 47.0286 27.257 46.4831 27.257H43.2479C42.9236 27.257 42.6417 27.0364 42.5557 26.7237C42.1885 25.3878 41.7177 24.0832 41.1478 22.8218C40.8828 22.2353 41.4364 21.6134 42.0124 21.9004C44.0302 22.9057 45.7577 24.3934 47.0491 26.2233ZM35.948 17.058C26.548 17.058 18.9497 24.7072 18.9497 34.0563C18.9497 38.5645 20.7406 42.8881 23.9284 46.0759C25.5068 47.6544 27.3807 48.9065 29.4431 49.7607C31.5054 50.615 33.7158 51.0546 35.948 51.0546C40.4563 51.0546 44.7799 49.2637 47.9677 46.0759C51.1555 42.8881 52.9464 38.5645 52.9464 34.0563C52.9464 31.8241 52.5067 29.6137 51.6524 27.5513C50.7982 25.489 49.5461 23.6151 47.9677 22.0367C46.3892 20.4582 44.5153 19.2061 42.453 18.3519C40.3907 17.4977 38.1803 17.058 35.948 17.058Z" fill="black"/>
</svg>
